<?xml version="1.0" encoding="UTF-8" standalone="no"?>
<svg
   xmlns:dc="http://purl.org/dc/elements/1.1/"
   xmlns:cc="http://creativecommons.org/ns#"
   xmlns:rdf="http://www.w3.org/1999/02/22-rdf-syntax-ns#"
   xmlns:svg="http://www.w3.org/2000/svg"
   xmlns="http://www.w3.org/2000/svg"
   xmlns:xlink="http://www.w3.org/1999/xlink"
   xmlns:sodipodi="http://sodipodi.sourceforge.net/DTD/sodipodi-0.dtd"
   xmlns:inkscape="http://www.inkscape.org/namespaces/inkscape"
   width="1920"
   height="2000"
   viewBox="0 0 507.99999 529.16668"
   version="1.1"
   id="svg987"
   inkscape:version="1.0.2 (1.0.2+r75+1)"
   sodipodi:docname="blob2.svg">
  <defs
     id="defs981">
    <linearGradient
       inkscape:collect="always"
       id="linearGradient1641">
      <stop
         style="stop-color:#303b79;stop-opacity:1"
         offset="0"
         id="stop1637" />
      <stop
         style="stop-color:#2264ab;stop-opacity:1"
         offset="1"
         id="stop1639" />
    </linearGradient>
    <inkscape:path-effect
       effect="spiro"
       id="path-effect1578"
       is_visible="true"
       lpeversion="1" />
    <inkscape:path-effect
       effect="spiro"
       id="path-effect1574"
       is_visible="true"
       lpeversion="1" />
    <inkscape:path-effect
       effect="spiro"
       id="path-effect1570"
       is_visible="true"
       lpeversion="1" />
    <inkscape:path-effect
       effect="spiro"
       id="path-effect1566"
       is_visible="true"
       lpeversion="1" />
    <inkscape:path-effect
       effect="spiro"
       id="path-effect1562"
       is_visible="true"
       lpeversion="1" />
    <inkscape:path-effect
       effect="spiro"
       id="path-effect1558"
       is_visible="true"
       lpeversion="1" />
    <inkscape:path-effect
       effect="spiro"
       id="path-effect1554"
       is_visible="true"
       lpeversion="1" />
    <linearGradient
       inkscape:collect="always"
       xlink:href="#linearGradient1641"
       id="linearGradient1643"
       x1="52.361572"
       y1="113.74482"
       x2="226.14618"
       y2="113.74482"
       gradientUnits="userSpaceOnUse"
       gradientTransform="matrix(2.8404638,0,0,1.4729688,-87.140757,-1.1485463)" />
  </defs>
  <sodipodi:namedview
     id="base"
     pagecolor="#ffffff"
     bordercolor="#666666"
     borderopacity="1.0"
     inkscape:pageopacity="0.0"
     inkscape:pageshadow="2"
     inkscape:zoom="0.24748737"
     inkscape:cx="396.85039"
     inkscape:cy="1188.1491"
     inkscape:document-units="mm"
     inkscape:current-layer="layer1"
     inkscape:document-rotation="0"
     showgrid="false"
     inkscape:window-width="1920"
     inkscape:window-height="1043"
     inkscape:window-x="0"
     inkscape:window-y="0"
     inkscape:window-maximized="1"
     inkscape:snap-page="false"
     units="px" />
  <metadata
     id="metadata984">
    <rdf:RDF>
      <cc:Work
         rdf:about="">
        <dc:format>image/svg+xml</dc:format>
        <dc:type
           rdf:resource="http://purl.org/dc/dcmitype/StillImage" />
        <dc:title></dc:title>
      </cc:Work>
    </rdf:RDF>
  </metadata>
  <g
     inkscape:label="Layer 1"
     inkscape:groupmode="layer"
     id="layer1">
    <path
       style="fill:url(#linearGradient1643);fill-opacity:1;stroke:none;stroke-width:0;stroke-linecap:butt;stroke-linejoin:miter;stroke-miterlimit:4;stroke-dasharray:none;stroke-opacity:1"
       d="M 354.30653,-1.1514688 C 331.07045,29.807252 302.22131,56.539747 269.58508,77.354028 243.32763,94.100139 214.7664,106.97463 185.59487,117.87913 c -19.11925,7.14689 -38.60362,13.49764 -56.8829,22.58013 -18.27927,9.0825 -35.524366,21.15592 -47.511263,37.67675 -14.0712,19.3935 -20.040535,44.29721 -17.178047,68.08613 3.016183,25.06621 15.550247,48.57948 33.437632,66.39671 17.887388,17.81724 40.903978,30.08571 65.234398,36.82685 48.66085,13.48227 100.80735,5.16689 149.15496,-9.39875 23.91792,-7.20573 47.46301,-15.93453 71.99722,-20.63158 24.5342,-4.69704 50.57592,-5.1528 73.84246,3.93882 10.02334,3.91671 19.68131,9.61748 30.42074,10.30492 5.36971,0.34373 10.94133,-0.67199 15.44997,-3.60866 2.25433,-1.46834 4.21602,-3.40427 5.6248,-5.69629 1.40878,-2.29202 2.25443,-4.94247 2.32868,-7.6318 0.11257,-4.0773 -1.5056,-7.98536 -2.14723,-12.01343 -0.67548,-4.24054 -0.25558,-8.61335 0.88047,-12.75434 1.13605,-4.14099 2.97423,-8.0635 5.12886,-11.7778 4.30926,-7.4286 9.88098,-14.0587 14.28147,-21.43362 7.24059,-12.13475 11.14752,-26.0708 12.59228,-40.1275 1.44476,-14.05671 0.4954,-28.26933 -1.48009,-42.26132 -3.95097,-27.98397 -11.99654,-55.43412 -13.32432,-83.664428 -0.62997,-13.394048 0.29473,-26.998424 4.36528,-39.774496 3.1884,-10.007296 8.27228,-19.418923 10.41997,-29.699939 1.07384,-5.140508 1.38746,-10.499244 0.31179,-15.6393701 -1.07567,-5.1401261 -3.61202,-10.0574047 -7.58898,-13.4869513 -2.82066,-2.4324103 -6.28506,-4.0580262 -9.89781,-4.9639706 -3.61276,-0.905944 -7.37569,-1.111347 -11.09461,-0.905525 -7.43785,0.411646 -14.67999,2.4378423 -22.03116,3.6425068 -22.42441,3.6747713 -45.2979,-0.3394639 -68.00891,-1.0931394 -23.43386,-0.7776634 -46.98118,1.9552692 -69.614,8.0794938 z"
       id="path1576"
       inkscape:original-d="m 354.30653,-1.1514688 c 63.5143,49.4083798 39.15578,62.4458398 -84.72145,78.5054968 -24.57455,3.18588 -62.26256,33.013612 -83.99021,40.525102 -44.10142,15.24635 -80.86318,35.729 -104.394163,60.25688 -18.322102,19.09833 -25.165887,47.22332 -17.178047,68.08613 25.589367,66.83488 106.58899,106.0317 247.82699,93.82481 52.15916,-4.508 99.96801,-4.79901 145.83968,-16.69276 13.96664,-3.62131 42.3946,-1.62276 53.82419,-6.63183 3.01104,-1.31957 -2.14723,-9.71304 -2.14723,-12.01343 0,-16.34809 20.2908,-29.01678 20.2908,-45.96576 0,-55.48802 -2.21213,-110.55529 -2.21213,-166.053248 0,-13.234366 1.69221,-26.63238 4.36528,-39.774496 1.3149,-6.464456 13.5382,-54.0113351 3.14278,-58.8262604 -5.52363,-2.5584286 -35.16662,-1.6009273 -43.02358,-2.2269888 -22.6488,-1.8047048 -44.74056,-3.1410558 -68.00891,-1.0931394 -27.05454,2.3811466 -40.1279,11.6801827 -69.614,8.0794938 z"
       inkscape:path-effect="#path-effect1578"
       sodipodi:nodetypes="cssssssssssssssc" />
  </g>
</svg>
