<svg id="Layer_1" enable-background="new 0 0 512 512" height="512" viewBox="0 0 512 512" width="512" xmlns="http://www.w3.org/2000/svg"><g fill="#ad2a34"><path d="m163.3 236.2c-9.5 0-18.8-3-26.5-8.6l-29.5-21.4c-2.7-1.9-3.3-5.7-1.3-8.4 1.9-2.7 5.7-3.3 8.4-1.3l29.5 21.4c6.5 4.7 14.5 6.9 22.4 6.2l21.4-2c3.3-.3 6.2 2.1 6.6 5.4.3 3.3-2.1 6.2-5.4 6.6h-.1l-21.4 2c-1.4 0-2.7.1-4.1.1z"/><path d="m158.4 295.3c-8.9 0-17.6-2.6-25-7.5l-21.7-14.4c-2.8-1.8-3.5-5.5-1.7-8.3s5.5-3.5 8.3-1.7l21.7 14.4c7.7 5.1 17.2 6.8 26.2 4.6l22.7-5.8c3.2-.8 6.5 1.1 7.3 4.3s-1.1 6.5-4.3 7.3h-.1l-22.7 5.8c-3.5.8-7.1 1.3-10.7 1.3z"/><path d="m173.2 421.5c-2.8 0-5.7-.3-8.5-.8l-23.4-4.5c-3.3-.6-5.4-3.8-4.8-7 .6-3.3 3.8-5.4 7-4.8l23.4 4.5c6 1.2 12.3.6 18-1.6l32.5-12.7c3.1-1.2 6.6.3 7.8 3.4s-.3 6.6-3.4 7.8l-32.5 12.7c-5.1 2-10.6 3-16.1 3z"/><path d="m159.2 360.9c-3.2 0-6.5-.3-9.6-1l-20.5-4.5c-3.2-.7-5.3-3.8-4.7-7.1.7-3.2 3.8-5.3 7.1-4.7h.1l20.5 4.5c5.5 1.2 11.1 1 16.5-.6l34.1-10.4c3.2-1 6.5.8 7.5 3.9 1 3.2-.8 6.5-3.9 7.5 0 0 0 0-.1 0l-34.1 10.5c-4.1 1.3-8.5 1.9-12.9 1.9z"/><path d="m347.2 236.3c-1.1 0-2.2 0-3.2-.1l-19.8-1.5c-3.3-.2-5.8-3.1-5.5-6.4.2-3.3 3.1-5.8 6.4-5.5l19.8 1.5c8 .6 15.9-1.8 22.3-6.6l29.1-21.9c2.6-2 6.4-1.5 8.4 1.2 2 2.6 1.5 6.4-1.2 8.4l-29.1 21.9c-7.8 5.8-17.4 9-27.2 9z"/><path d="m353.2 295.3c-3.3 0-6.6-.4-9.8-1.1l-22-5.2c-3.2-.8-5.2-4-4.5-7.2.8-3.2 4-5.2 7.2-4.5l22 5.1c9 2 18.4.2 26-5.1l21.4-14.8c2.7-1.9 6.4-1.3 8.4 1.4 1.9 2.7 1.3 6.4-1.4 8.4 0 0-.1.1-.1.1l-21.4 14.8c-7.6 5.3-16.6 8.1-25.8 8.1z"/><path d="m339.4 419.3c-4.4 0-8.7-.6-12.9-1.9l-34.8-10.7c-3.2-1-5-4.3-4-7.5s4.3-5 7.5-4l34.8 10.6c4.6 1.4 9.5 1.7 14.2 1l22.9-3.4c3.3-.5 6.3 1.8 6.8 5.1s-1.8 6.3-5 6.8l-22.9 3.4c-2.2.4-4.4.6-6.6.6z"/><path d="m350.5 361.5c-4.8 0-9.6-.8-14.2-2.3l-29.6-10.1c-3.1-1.1-4.8-4.5-3.8-7.6 1.1-3.1 4.5-4.8 7.6-3.8l29.5 10.1c6.3 2.1 13 2.2 19.4.4l21.9-6.2c3.2-.9 6.5 1 7.4 4.1s-1 6.5-4.1 7.4l-21.9 6.2c-4 1.2-8.1 1.8-12.2 1.8z"/></g><path d="m101.2 96.6 99.8 88.8c3.6-7.6 7.9-14.7 12.9-21.4l-75.1-68.1z" fill="#ff5a62"/><path d="m373.2 95.9-75.8 68.7c5.1 6.5 9.6 13.5 13.3 20.9l.2-.1 99.8-88.8z" fill="#ff5a62"/><g fill="#ad2a34"><path d="m186.2 108c-27.3 3.9-49.3 24.3-55.4 51.2l-5.4 24.5c-.7 3.2 1.3 6.4 4.6 7.1.4.1.9.1 1.3.1 2.8 0 5.3-2 5.9-4.7l5.4-24.5c4.9-22 23-38.7 45.3-41.9 20.1-2.8 38.1 6.5 48.2 25 0 0 0 .1.1.1 1.6 2.9 5.3 3.9 8.2 2.3s3.9-5.3 2.3-8.2c-12.6-23-35.2-34.6-60.5-31z"/><path d="m385.6 184-5.4-24.5c-5.6-25.4-25-44.1-50.7-48.9-25.2-4.7-49.6 5.5-63.7 26.7-.4.6-.8 1.3-1.2 1.9-1.7 2.8-.9 6.5 1.9 8.3s6.5.9 8.3-1.9c.3-.5.7-1.1 1-1.6 11.4-17.1 31.1-25.4 51.5-21.5 20.5 3.6 36.8 19.3 41.1 39.7l5.4 24.5c.6 2.7 3 4.7 5.9 4.7.4 0 .9 0 1.3-.1 3.2-.8 5.3-4 4.6-7.3z"/><path d=""/></g><path d="m310.8 185.6c7.2 14.3 12.6 31.9 13.9 53.1-84.3 48.3-136.4 2.8-136.4 2.8.7-22.6 5.8-41.1 12.8-56.1 6.9-14.8 16.8-28.1 29-38.9 11.1-10 27.1-12.3 40.6-6.1 2.8 1.3 5.4 3 7.8 4.9 7 5.7 13.3 12.2 18.9 19.2 5.2 6.6 9.6 13.7 13.4 21.1z" fill="#f48e8e"/><path d="m218.2 241.6c.7-22.6 5.8-41.1 12.8-56.1 6.9-14.8 16.8-28.1 29-38.9 2.9-2.6 6.3-4.8 9.9-6.4-13.4-5.9-29-3.4-39.9 6.4-12.2 10.9-22.1 24.1-29 38.9-7.1 15-12.1 33.5-12.8 56.1 0 0 10.7 9.3 30.2 15-.3-5.2-.3-10.2-.2-15z" fill="#c97979"/><path d="m282.4 447.1c-1.6 0-3.3.2-4.8.6-4 7.5-11.7 12.3-20.2 12.5v.1l19 25.5h.2c1.9.6 3.9.9 5.9.9 11 0 19.8-8.9 19.8-19.9-.1-10.8-9-19.7-19.9-19.7z" fill="#c9494f"/><path d="m324.6 238.7c1 16.8-.5 35.8-5.5 57.4-.7 3.1-1.5 6.2-2.2 9.2-76.8 40.6-120.7-1-120.7-1-.6-2.7-1.3-5.4-1.9-8.2-4.8-20.4-6.5-38.5-6-54.6-.1.1 52 45.5 136.3-2.8z" fill="#dd494c"/><path d="m256.6 460.2c-8.7 0-16.7-4.8-20.9-12.5-1.6-.4-3.2-.6-4.9-.6-11 0-19.8 8.9-19.8 19.9s8.9 19.8 19.9 19.8c2.5 0 4.9-.5 7.2-1.4l19.1-25.1v-.1c-.1 0-.3 0-.6 0z" fill="#c9494f"/><path d="m316.9 305.4c-6.1 25.7-11.6 47.6-16.4 66-37.9 15.9-69.6 7.3-87.6-.1-4.9-18.7-10.5-40.8-16.6-66.9-.1 0 43.8 41.5 120.6 1z" fill="#f48e8e"/><path d="m300.5 371.4c-9.7 36.7-16.8 60-21.4 73.7-.4 1.3-1 2.5-1.6 3.7-4 7.5-11.7 12.3-20.2 12.5-.2 0-.4 0-.6 0-8.7 0-16.7-4.8-20.9-12.5-.6-1.2-1.2-2.4-1.6-3.7-4.5-13.7-11.7-37-21.4-73.8 18.1 7.3 49.7 16 87.7.1z" fill="#dd494c"/><path d="m274.2 161.5c-3.3 0-6 2.7-6 6s2.7 6 6 6 6-2.7 6-6-2.7-6-6-6z" fill="#8c3c3a"/><path d="m242.9 167.5c0-3.3-2.7-6-6-6s-6 2.7-6 6 2.7 6 6 6c3.3 0 6-2.7 6-6z" fill="#8c3c3a"/><path d="m172.3 63.5c-3.4 6.7-7.9 12.8-13.3 18.2-5.8 5.9-12.7 10.7-20.2 14.3-13.6 6.3-27.7 6.8-37.6.7-1.7-1.1-3.3-2.3-4.8-3.8-14.2-14.2-9.2-42.2 11.2-62.6 18.5-18.5 43.2-24.3 58.2-14.7-11.6 3.4-20 12.6-20 23.4.1 12.6 11.7 23.1 26.5 24.5z" fill="#dd494c"/><path d="m404.3 30.3c20.4 20.4 25.4 48.4 11.2 62.6-1.4 1.4-3 2.7-4.8 3.8-9.9 6.1-24 5.6-37.6-.7-7.5-3.5-14.3-8.4-20.2-14.3-5.4-5.3-9.8-11.4-13.3-18.2 14.8-1.4 26.4-11.9 26.4-24.6 0-10.8-8.3-20-20-23.4 15.1-9.6 39.9-3.7 58.3 14.8z" fill="#dd494c"/><path d="m277.1 480.2c0 1.9-.3 3.9-.8 5.7-3.2 10.5-14.2 16.4-24.7 13.3-10.5-3.2-16.4-14.2-13.3-24.7s14.2-16.4 24.7-13.3c8.4 2.5 14.1 10.2 14.1 19z" fill="#f48e8e"/><path d="m226.2 304.4c-.6-2.7-1.3-5.4-1.9-8.2-3.1-13-5.1-26.2-5.8-39.6-19.5-5.7-30.2-15-30.2-15-.5 16.1 1.2 34.2 6 54.6.7 2.8 1.3 5.5 1.9 8.2 1 4 11.8 11.2 33.9 16.3-1.3-5.3-2.6-10.7-3.9-16.3z" fill="#b24248"/><path d="m242.8 371.3c-3.9-14.7-8.1-31.5-12.7-50.6-22.1-5.1-33.9-16.3-33.9-16.3 6.2 26.1 11.7 48.2 16.6 66.9 10.3 4.3 21.1 7.1 32.2 8.4-.7-2.8-1.4-5.5-2.2-8.4z" fill="#c97979"/><path d="m265.8 448.7c-.6-1.2-1.2-2.4-1.6-3.7-4.2-12.6-10.6-33.4-19.2-65.4-11.1-1.3-21.9-4.1-32.2-8.4 9.7 36.8 16.9 60.1 21.4 73.8.4 1.3 1 2.5 1.6 3.7 4.1 7.7 12.1 12.5 20.9 12.5h.6c5.2-.1 10.3-2 14.4-5.4-2.4-1.9-4.4-4.3-5.9-7.1z" fill="#b24248"/><path d="m209.6 242.8c-.1 0-.3 0-.4 0-3.3-.2-5.8-3.1-5.6-6.4.8-12.2 3.1-24.2 6.8-35.8 1-3.2 4.4-4.9 7.6-3.9s4.9 4.4 3.9 7.6c-3.4 10.7-5.5 21.8-6.3 33-.3 3.1-2.9 5.5-6 5.5z" fill="#f4f8fc"/><path d="m222.5 192.6c-3.3 0-6-2.7-6-6 0-.9.2-1.8.6-2.6.7-1.5 1.5-3 2.3-4.5 1.6-2.9 5.3-3.9 8.2-2.3 2.8 1.6 3.9 5 2.4 7.9-.7 1.3-1.4 2.7-2.1 4.1-1 2.1-3.1 3.4-5.4 3.4z" fill="#f4f8fc"/></svg>