<svg id="Capa_1" enable-background="new 0 0 512 512" height="512" viewBox="0 0 512 512" width="512" xmlns="http://www.w3.org/2000/svg"><g><path d="m456 512h-400c-4.324 0-8.438-1.866-11.286-5.119s-4.153-7.577-3.582-11.863l10.743-80.573c5.778-43.341 40.169-76.982 83.63-81.81.55-.062 1.103-.092 1.656-.092h237.678c.554 0 1.106.03 1.656.092 43.462 4.827 77.853 38.469 83.631 81.81l10.742 80.573c.571 4.286-.734 8.61-3.582 11.863s-6.962 5.119-11.286 5.119z" fill="#09607d"/><path d="m467.286 506.881c2.848-3.253 4.153-7.577 3.582-11.863l-10.742-80.573c-5.778-43.341-40.169-76.982-83.631-81.81-.55-.062-1.103-.092-1.656-.092h-118.839v179.457h200c4.324 0 8.438-1.866 11.286-5.119z" fill="#07485e"/><path d="m256 432c-34.981 0-68.071-9.216-93.174-25.951-26.972-17.982-41.826-42.503-41.826-69.049s14.854-51.067 41.826-69.049c25.103-16.735 58.193-25.951 93.174-25.951s68.071 9.216 93.174 25.951c26.972 17.982 41.826 42.503 41.826 69.049s-14.854 51.067-41.826 69.049c-25.103 16.735-58.193 25.951-93.174 25.951z" fill="#07485e"/><path d="m349.174 406.049c26.972-17.982 41.826-42.503 41.826-69.049s-14.854-51.067-41.826-69.049c-25.103-16.735-58.193-25.951-93.174-25.951v190c34.981 0 68.071-9.216 93.174-25.951z" fill="#03232e"/><path d="m306 101.303h-100c-8.284 0-15-6.716-15-15v-41.303c0-24.813 20.187-45 45-45h40c24.813 0 45 20.187 45 45v41.303c0 8.284-6.716 15-15 15z" fill="#07485e"/><g><path d="m306 101.303c8.284 0 15-6.716 15-15v-41.303c0-24.813-20.187-45-45-45h-20v101.303z" fill="#03232e"/></g><path d="m256 372c-85.468 0-155-69.532-155-155s69.532-155 155-155 155 69.532 155 155-69.532 155-155 155z" fill="#09607d"/><path d="m411 217c0-85.468-69.532-155-155-155v310c85.468 0 155-69.532 155-155z" fill="#07485e"/><circle cx="256" cy="217" fill="#beebfa" r="60"/><path d="m316 217c0-33.137-26.863-60-60-60v120c33.137 0 60-26.863 60-60z" fill="#7ed8f7"/><path d="m256 292c-41.355 0-75-33.645-75-75s33.645-75 75-75 75 33.645 75 75-33.645 75-75 75zm0-120c-24.813 0-45 20.187-45 45s20.187 45 45 45 45-20.187 45-45-20.187-45-45-45z" fill="#fff5f5"/><path d="m301 217c0 24.813-20.187 45-45 45v30c41.355 0 75-33.645 75-75s-33.645-75-75-75v30c24.813 0 45 20.187 45 45z" fill="#f5f0eb"/><path d="m416 282h-25c-13.807 0-25-11.193-25-25v-80c0-13.807 11.193-25 25-25h25c13.807 0 25 11.193 25 25v80c0 13.807-11.193 25-25 25z" fill="#03232e"/><path d="m121 282h-25c-13.807 0-25-11.193-25-25v-80c0-13.807 11.193-25 25-25h25c13.807 0 25 11.193 25 25v80c0 13.807-11.193 25-25 25z" fill="#07485e"/></g></svg>