<svg id="Capa_1" enable-background="new 0 0 512 512" height="512" viewBox="0 0 512 512" width="512" xmlns="http://www.w3.org/2000/svg"><g><g><g><g><g><g><path d="m256 18.582c-131.122 0-237.418 106.296-237.418 237.418s106.296 237.418 237.418 237.418 237.418-106.296 237.418-237.418-106.296-237.418-237.418-237.418zm0 376.418c-76.767 0-139-62.232-139-139s62.232-139 139-139 139 62.232 139 139-62.233 139-139 139z" fill="#e07f84"/></g><path d="m264.058 18.733c101.532 31.091 175.37 125.551 175.37 237.267s-73.838 206.176-175.37 237.267c127.389-4.251 229.36-108.843 229.36-237.267s-101.971-233.016-229.36-237.267z" fill="#db636e"/></g><g fill="#eaf2ff"><path d="m256 117c21.714 0 42.264 4.982 60.572 13.861v-104.587c0-6.757-4.751-12.61-11.377-13.933-16.024-3.201-32.483-4.841-49.195-4.841s-33.171 1.64-49.195 4.841c-6.626 1.324-11.377 7.177-11.377 13.933v104.587c18.308-8.878 38.858-13.861 60.572-13.861z"/><path d="m117 256c0-21.718 4.984-42.272 13.866-60.583h-104.589c-6.757 0-12.609 4.751-13.933 11.377-3.203 16.027-4.844 32.49-4.844 49.206 0 16.708 1.639 33.164 4.839 49.184 1.323 6.626 7.176 11.378 13.933 11.378h104.583c-8.875-18.306-13.855-38.852-13.855-60.562z"/><path d="m256 395c-21.714 0-42.264-4.982-60.572-13.861v104.587c0 6.757 4.751 12.61 11.377 13.933 16.024 3.201 32.484 4.841 49.195 4.841s33.171-1.64 49.195-4.841c6.626-1.324 11.377-7.176 11.377-13.933v-104.587c-18.308 8.879-38.858 13.861-60.572 13.861z"/><path d="m499.656 206.794c-1.324-6.626-7.176-11.377-13.933-11.377h-104.59c8.882 18.311 13.867 38.865 13.867 60.583 0 21.71-4.98 42.256-13.856 60.562h104.583c6.757 0 12.61-4.751 13.934-11.378 3.2-16.021 4.839-32.477 4.839-49.184 0-16.716-1.641-33.179-4.844-49.206z"/></g><path d="m316.572 41.799v-15.525c0-6.757-4.751-12.61-11.377-13.933-16.024-3.201-32.483-4.841-49.195-4.841-11.425 0-22.727.785-33.858 2.292 34.109 4.228 66.064 15.383 94.43 32.007z" fill="#d8eff1"/><path d="m222.143 502.208c11.13 1.508 22.432 2.292 33.857 2.292 16.712 0 33.171-1.64 49.195-4.841 6.626-1.324 11.377-7.176 11.377-13.933v-15.524c-28.365 16.623-60.321 27.778-94.429 32.006z" fill="#dbe8f9"/><path d="m499.656 206.794c-1.324-6.626-7.176-11.377-13.933-11.377h-53.759c4.866 19.391 7.464 39.683 7.464 60.583 0 20.893-2.596 41.177-7.458 60.562h53.758c6.757 0 12.61-4.751 13.934-11.378 3.2-16.021 4.839-32.477 4.839-49.184-.001-16.716-1.642-33.179-4.845-49.206z" fill="#dbe8f9"/></g></g></g><g><path d="m507.011 205.312c-1.623-8.126-7.75-14.457-15.467-16.611-.186-.653-.375-1.305-.566-1.956v-45.422c0-66.341-53.973-120.313-120.313-120.313h-45.422c-.654-.192-1.309-.382-1.966-.569-2.154-7.718-8.485-13.844-16.612-15.467-33.123-6.617-68.205-6.617-101.328 0-8.127 1.622-14.458 7.749-16.612 15.467-.656.187-1.312.377-1.966.569h-57.935c-59.441 0-107.801 48.359-107.801 107.801v57.934c-.191.651-.38 1.303-.566 1.956-7.717 2.154-13.844 8.485-15.467 16.611-3.311 16.565-4.99 33.615-4.99 50.676 0 17.049 1.677 34.091 4.984 50.654 1.624 8.126 7.75 14.456 15.465 16.611.188.66.379 1.32.573 1.978v57.935c0 59.441 48.359 107.8 107.801 107.8h57.935c.654.192 1.309.382 1.966.569 2.154 7.718 8.485 13.844 16.612 15.467 16.562 3.309 33.607 4.986 50.664 4.986s34.103-1.678 50.664-4.986c8.127-1.622 14.458-7.749 16.612-15.467.656-.187 1.312-.377 1.966-.569h57.935c59.441 0 107.801-48.358 107.801-107.8v-57.935c.194-.658.385-1.317.573-1.978 7.716-2.154 13.842-8.485 15.465-16.612 3.308-16.562 4.984-33.604 4.984-50.653 0-17.061-1.679-34.111-4.989-50.676zm-136.347-169.301c58.07 0 105.313 47.243 105.313 105.313v6.861c-23.893-48.725-63.448-88.281-112.174-112.174zm-46.592.313c72.315 22.37 129.216 79.267 151.588 151.581h-89.917c-13.796-26.223-35.448-47.874-61.672-61.667v-89.914zm-121.144 23.02c.002-45.28.054-29.741 0-33.08v-.001c0-3.193 2.248-5.96 5.347-6.579 31.191-6.23 64.259-6.23 95.452 0 3.098.619 5.346 3.386 5.346 6.579v.001c-.002.128 0 92.957 0 93.131-33.424-13.037-71.78-13.404-106.145 0v-24.989c0-4.143-3.357-7.5-7.5-7.5s-7.5 3.357-7.5 7.5v31.832c-26.224 13.793-47.876 35.445-61.672 61.667h-89.916c22.373-72.314 79.273-129.211 151.588-151.581v23.019c0 4.143 3.357 7.5 7.5 7.5s7.5-3.357 7.5-7.499zm-166.906 69.468c0-51.171 41.63-92.801 92.801-92.801h19.374c-48.725 23.893-88.281 63.449-112.175 112.175zm-16.329 174.892c-3.114-15.597-4.693-31.651-4.693-47.716 0-16.076 1.581-32.137 4.698-47.737.617-3.089 3.37-5.333 6.552-5.345.159.003 92.953 0 93.161 0-13.094 33.561-13.359 71.909-.009 106.145-.17 0-93.038-.004-93.173 0-3.175-.022-5.919-2.264-6.536-5.347zm168.235 171.948c-72.324-22.372-129.226-79.277-151.595-151.602h89.911c13.796 26.232 35.452 47.891 61.684 61.689zm-59.105.314c-51.171 0-92.801-41.63-92.801-92.8v-19.374c23.894 48.726 63.448 88.281 112.174 112.174zm69.877-338.368c36.081-17.496 78.487-17.512 114.6 0 98.989 48.002 98.191 189.162 0 236.781-36.081 17.496-78.487 17.512-114.6 0-98.947-47.986-98.215-189.154 0-236.781zm110.372 315.035c-.002 45.28-.054 29.741 0 33.08v.001c0 3.193-2.248 5.96-5.347 6.579-31.191 6.23-64.259 6.23-95.452 0-3.098-.619-5.346-3.386-5.346-6.579v-.001c.002-.128 0-92.957 0-93.131 33.424 13.037 71.78 13.404 106.145 0v24.987c0 4.143 3.357 7.5 7.5 7.5s7.5-3.357 7.5-7.5v-31.831c26.232-13.798 47.888-35.457 61.684-61.689h89.911c-22.368 72.325-79.271 129.23-151.595 151.602v-23.019c0-4.143-3.357-7.5-7.5-7.5s-7.5 3.358-7.5 7.501zm166.906-69.467c0 51.17-41.63 92.8-92.801 92.8h-19.374c48.726-23.893 88.281-63.448 112.174-112.173v19.373zm16.329-79.463c-.614 3.074-3.343 5.311-6.505 5.346-.417-.012-93.082.001-93.204.001 13.088-33.563 13.348-71.911-.009-106.145.142 0 93.002.002 93.134 0 3.193 0 5.959 2.248 6.578 5.346v.001c3.117 15.6 4.698 31.66 4.698 47.736.001 16.065-1.578 32.119-4.692 47.715z"/></g></g></svg>