<?xml version="1.0" encoding="UTF-8" standalone="no"?>
<svg
   xmlns:dc="http://purl.org/dc/elements/1.1/"
   xmlns:cc="http://creativecommons.org/ns#"
   xmlns:rdf="http://www.w3.org/1999/02/22-rdf-syntax-ns#"
   xmlns:svg="http://www.w3.org/2000/svg"
   xmlns="http://www.w3.org/2000/svg"
   xmlns:sodipodi="http://sodipodi.sourceforge.net/DTD/sodipodi-0.dtd"
   xmlns:inkscape="http://www.inkscape.org/namespaces/inkscape"
   width="350px"
   height="160px"
   viewBox="0 0 350 160"
   version="1.1"
   id="SVGRoot"
   sodipodi:docname="access_logo_final.svg"
   inkscape:version="1.0.2-2 (e86c870879, 2021-01-15)">
  <defs
     id="defs1600">
    <rect
       x="-43.941635"
       y="-56.568542"
       width="299.51023"
       height="227.28432"
       id="rect877" />
  </defs>
  <sodipodi:namedview
     id="base"
     pagecolor="#ffffff"
     bordercolor="#666666"
     borderopacity="1.0"
     inkscape:pageopacity="0.0"
     inkscape:pageshadow="2"
     inkscape:zoom="1.979899"
     inkscape:cx="195.65693"
     inkscape:cy="84.591838"
     inkscape:document-units="px"
     inkscape:current-layer="layer1"
     inkscape:document-rotation="0"
     showgrid="false"
     inkscape:window-width="1901"
     inkscape:window-height="1024"
     inkscape:window-x="1920"
     inkscape:window-y="0"
     inkscape:window-maximized="0" />
  <metadata
     id="metadata1603">
    <rdf:RDF>
      <cc:Work
         rdf:about="">
        <dc:format>image/svg+xml</dc:format>
        <dc:type
           rdf:resource="http://purl.org/dc/dcmitype/StillImage" />
        <dc:title></dc:title>
      </cc:Work>
    </rdf:RDF>
  </metadata>
  <g
     inkscape:label="Calque 1"
     inkscape:groupmode="layer"
     id="layer1">
    <text
       xml:space="preserve"
       style="font-style:normal;font-variant:normal;font-weight:normal;font-stretch:normal;font-size:82.7238px;line-height:1.25;font-family:'Gill Sans MT Condensed';-inkscape-font-specification:'Gill Sans MT Condensed, ';display:inline;fill:#6f7c91;stroke:none;stroke-width:0.999991"
       x="33.644932"
       y="73.691124"
       id="text1113-5"
       transform="scale(0.98064873,1.0197331)"><tspan
         sodipodi:role="line"
         id="tspan1111-0"
         x="33.644932"
         y="73.691124"
         style="font-style:normal;font-variant:normal;font-weight:normal;font-stretch:normal;font-size:82.7238px;font-family:'Gill Sans MT Condensed';-inkscape-font-specification:'Gill Sans MT Condensed, ';fill:#6f7c91;stroke:none;stroke-width:0.999991;stroke-opacity:1">C  d</tspan></text>
    <text
       xml:space="preserve"
       style="font-size:96px;line-height:1.25;font-family:'Gill Sans MT Condensed';display:inline;stroke:none;stroke-width:0.999995;-inkscape-font-specification:'Gill Sans MT Condensed, ';font-weight:normal;font-style:normal;font-stretch:normal;font-variant:normal;"
       x="66.834396"
       y="128.94012"
       id="text1149-1"
       transform="scale(0.9782342,1.0222501)"><tspan
         sodipodi:role="line"
         id="tspan1147-6"
         x="66.834396"
         y="128.94012"
         style="font-style:normal;font-variant:normal;font-weight:normal;font-stretch:normal;font-family:'Gill Sans MT Condensed';-inkscape-font-specification:'Gill Sans MT Condensed, ';fill:#6f7c91;stroke:none;stroke-width:0.999995;stroke-opacity:1;font-size:96px;">access</tspan></text>
    <g
       id="g2317"
       transform="matrix(0.12123348,0,0,0.10737407,58.452457,22.088727)"
       style="stroke-width:8.76243;">
      <path
         d="m 411.678,61.287 -150,-60 c -1.824,-0.736 -3.71,-1.029 -5.566,-1.029 v 149.96 c 1.86,0 3.75,-0.337 5.566,-1.069 l 150,-60 c 5.698,-2.285 9.434,-7.793 9.434,-13.931 0,-6.138 -3.736,-11.646 -9.434,-13.931 z"
         fill="#4bb9ec"
         id="path2283"
         style="stroke-width:50.0725;" />
      <path
         d="m 271.111,15.218 v 181 c 0,8.399 -6.599,15 -15,15 -8.401,0 -15,-6.601 -15,-15 v -181 c 0,-8.401 6.599,-15 15,-15 8.401,0 15,6.599 15,15 z"
         fill="#725d57"
         id="path2285"
         style="stroke-width:50.0725;" />
      <path
         d="m 271.111,15.218 v 181 c 0,8.399 -6.599,15 -15,15 v -211 c 8.401,0 15,6.599 15,15 z"
         fill="#53433f"
         id="path2287"
         style="stroke-width:50.0725;" />
      <path
         d="m 301.111,226.218 v 32.399 h -90 v -32.399 c 0,-24.901 20.099,-45 45,-45 24.901,0 45,20.099 45,45 z"
         fill="#ff641a"
         id="path2289"
         style="stroke-width:50.0725;" />
      <path
         d="m 301.111,258.616 h -45 v -77.399 c 24.901,0 45,20.099 45,45 z"
         fill="#f03800"
         id="path2291"
         style="stroke-width:50.0725;" />
      <path
         d="m 421.111,407.218 c 0,23.399 -5.099,46.5 -14.399,67.5 -8.101,2.699 -15.901,6.299 -23.101,11.1 -22.5,14.7 -51.301,14.7 -73.5,0 -16.5,-10.8 -35.099,-16.201 -54,-16.201 -17.999,0 -36.599,5.402 -52.5,16.201 -21.301,14.099 -52.5,13.799 -73.5,0 -7.8,-5.099 -16.199,-9 -24.901,-11.7 -9.3,-21 -14.099,-43.801 -14.099,-66.899 0,-90.901 74.099,-166 165,-166 90.901,0 165,75.098 165,165.999 z"
         fill="#ff9100"
         id="path2293"
         style="stroke-width:50.0725;" />
      <path
         d="m 421.111,407.218 c 0,23.399 -5.099,46.5 -14.399,67.5 -8.101,2.699 -15.901,6.299 -23.101,11.1 -22.5,14.7 -51.301,14.7 -73.5,0 -16.5,-10.8 -35.099,-16.201 -54,-16.201 V 241.218 c 90.901,0 165,75.099 165,166 z"
         fill="#ff641a"
         id="path2295"
         style="stroke-width:50.0725;" />
      <path
         d="m 510.912,496.617 c -3.001,7.5 -12.001,11.4 -19.501,8.101 -5.7,-2.401 -12.4,-5.4 -17.8,-9 -22.5,-14.702 -51,-14.702 -73.5,0 -16.199,10.8 -34.799,16.199 -53.399,16.199 -18.301,0 -36.901,-5.4 -53.101,-16.199 -11.4,-7.5 -24.3,-11.102 -37.5,-11.102 -12.299,0 -24.901,3.602 -36,11.102 -32.401,21.599 -74.099,21.599 -106.5,0 -22.5,-14.702 -52,-14.702 -74.5,0 -5.7,3.898 -11.999,7.2 -18.6,9.598 -7.8,3.301 -16.5,-0.599 -19.499,-8.399 -3.001,-7.8 0.899,-16.5 8.699,-19.501 4.499,-1.8 8.699,-3.9 12.9,-6.599 32.401,-21.601 75.099,-21.601 107.5,0 22.5,14.7 51,14.7 73.5,0 15.901,-10.8 34.501,-16.201 52.5,-16.201 18.9,0 37.5,5.402 54,16.201 22.5,14.7 51,14.7 73.5,0 32.401,-21.601 75.099,-21.601 107.5,0 3.9,2.401 7.8,4.499 11.7,6.299 7.801,3.001 11.4,11.701 8.101,19.501 z"
         fill="#a8ebfa"
         id="path2297"
         style="stroke-width:50.0725;" />
      <path
         d="m 510.912,496.617 c -3.001,7.5 -12.001,11.4 -19.501,8.101 -5.7,-2.401 -12.4,-5.4 -17.8,-9 -22.5,-14.702 -51,-14.702 -73.5,0 -16.199,10.8 -34.799,16.199 -53.399,16.199 -18.301,0 -36.901,-5.4 -53.101,-16.199 -11.4,-7.5 -24.3,-11.102 -37.5,-11.102 v -30 c 18.9,0 37.5,5.402 54,16.201 22.5,14.7 51,14.7 73.5,0 32.401,-21.601 75.099,-21.601 107.5,0 3.9,2.401 7.8,4.499 11.7,6.299 7.801,3.001 11.4,11.701 8.101,19.501 z"
         fill="#76e2f8"
         id="path2299"
         style="stroke-width:50.0725;" />
    </g>
    <text
       xml:space="preserve"
       id="text875"
       style="line-height:1.25;font-family:sans-serif;font-size:64px;white-space:pre;shape-inside:url(#rect877);" />
  </g>
</svg>
