<svg id="Capa_1" enable-background="new 0 0 512 512" height="512" viewBox="0 0 512 512" width="512" xmlns="http://www.w3.org/2000/svg"><g><path d="m345 482h-15v-67c0-8.284-6.716-15-15-15s-15 6.716-15 15v67h-30v-69.012c0-8.284-6.716-15-15-15s-15 6.716-15 15v84.012c0 8.284 6.716 15 15 15h90c8.284 0 15-6.716 15-15s-6.716-15-15-15z" fill="#ffe477"/><g><path d="m345 482h-15v-67c0-8.284-6.716-15-15-15s-15 6.716-15 15v67h-15v30h60c8.284 0 15-6.716 15-15s-6.716-15-15-15z" fill="#ffd422"/></g><path d="m452 70h-27c-8.284 0-15 6.716-15 15v60h87c8.284 0 15-6.716 15-15 0-33.137-26.863-60-60-60z" fill="#ffd422"/><path d="m448.327 187.114-8.327-8.327v-101.287c0-42.733-34.767-77.5-77.5-77.5s-77.5 34.767-77.5 77.5v67.5c0 13.785-11.215 25-25 25l-207.396 15v75.083c0 1.666.277 3.321.821 4.896 34.088 98.705 127.15 165.021 231.575 165.021h62.721c78.453 0 142.279-63.826 142.279-142.279 0-38.004-14.8-73.734-41.673-100.607z" fill="#fff5f5"/><g><path d="m448.327 187.114-8.327-8.327v-101.287c0-42.733-34.767-77.5-77.5-77.5s-77.5 34.767-77.5 77.5v67.5 285h62.721c78.453 0 142.279-63.826 142.279-142.279 0-38.004-14.8-73.734-41.673-100.607z" fill="#f5f0eb"/></g><circle cx="380" cy="95" fill="#07485e" r="15"/><g><path d="m137.212 280h-42.212c-52.383 0-95-42.617-95-95 0-8.284 6.716-15 15-15h85c6.739 0 27.65 4.494 29.453 10.987l22.212 80c1.254 4.516.325 9.359-2.512 13.09-2.837 3.732-7.254 5.923-11.941 5.923z" fill="#ebe1dc"/></g><g><path d="m272.916 170h-172.916v15c0 15.417 2.1 30.53 6.073 45l20.927 15-9.568 15c5.202 10.618 11.486 20.675 18.747 30l38.821 15-8.803 15c10.213 7.936 21.41 14.778 33.459 20.301l32.81 15.038c12.968 5.943 26.768 8.884 40.509 8.884 18.262 0 36.419-5.193 52.374-15.432 27.959-17.941 44.651-48.486 44.651-81.707 0-53.532-43.552-97.084-97.084-97.084z" fill="#f5f0eb"/><g fill="#ebe1dc"><path d="m222.379 245c0-8.284-6.716-15-15-15h-101.306c2.848 10.374 6.663 20.415 11.359 30h89.946c8.285 0 15.001-6.716 15.001-15z"/><path d="m270 305c0-8.284-6.716-15-15-15h-118.82c8.677 11.144 18.745 21.24 30.018 30h88.802c8.284 0 15-6.716 15-15z"/></g></g><g><path d="m285 170.751v192.702c14.125-1.778 27.907-6.679 40.349-14.663 27.959-17.94 44.651-48.485 44.651-81.706 0-49.441-37.15-90.365-85-96.333z" fill="#ebe1dc"/></g></g></svg>