<svg id="Capa_1" enable-background="new 0 0 512 512" height="512" viewBox="0 0 512 512" width="512" xmlns="http://www.w3.org/2000/svg"><g><g><path d="m241.47 367.353c-8.754 0-15.851-7.097-15.851-15.851s7.097-15.851 15.851-15.851c8.813 0 15.983-7.17 15.983-15.983v-31.835c0-8.754 7.097-15.851 15.851-15.851s15.851 7.097 15.851 15.851v31.835c.001 26.293-21.391 47.685-47.685 47.685z" fill="#d1014f"/></g><path d="m241.47 399.315h-63.67c-43.848 0-79.521 35.673-79.521 79.531 0 8.754 7.097 15.851 15.851 15.851h127.34c8.754 0 15.851-7.097 15.851-15.851v-63.68c0-8.754-7.097-15.851-15.851-15.851z" fill="#ff7889"/><path d="m305.141 399.326-63.67-.01c-.001 0-.001 0-.002 0v95.383h63.67c8.754 0 15.851-7.097 15.851-15.851v-63.67c.001-8.754-7.094-15.851-15.849-15.852z" fill="#ff425b"/><g><path d="m336.979 494.698h-31.84v-95.373c12.769 0 24.775-4.975 33.809-14.009 6.19-6.19 16.226-6.191 22.416-.001l62.962 62.951c3.531 3.531 5.193 8.52 4.483 13.463s-3.708 9.263-8.091 11.657c-25.52 13.943-54.477 21.312-83.739 21.312z" fill="#d1014f"/></g><g><path d="m338.954 385.311c9.031-9.022 14.004-21.027 14.004-33.804 0-8.754 7.097-15.851 15.851-15.851h124.149c4.757 0 9.263 2.137 12.273 5.82s4.207 8.524 3.261 13.186c-10.282 50.632-42.277 93.907-87.782 118.731z" fill="#ff425b"/></g><path d="m509.092 351.507c1.923-10.448 2.908-21.141 2.908-31.84 0-46.751-18.207-90.705-51.267-123.764-15.596-15.598-33.685-27.941-53.764-36.686-7.567-3.295-16.39-.237-20.294 7.03l-65.361 121.654c-4.14 7.707-1.254 17.312 6.45 21.459 15.54 8.366 25.194 24.512 25.194 42.146h156.134z" fill="#d1014f"/><g><path d="m15.851 176.344c-8.754 0-15.851-7.097-15.851-15.851v-5.063c0-41.056 33.401-74.458 74.457-74.458h198.847c8.813 0 15.983-7.17 15.983-15.983s-7.17-15.983-15.983-15.983c-8.754 0-15.851-7.097-15.851-15.851s7.097-15.851 15.851-15.851c26.294 0 47.686 21.392 47.686 47.686s-21.392 47.686-47.686 47.686h-198.847c-23.575 0-42.754 19.18-42.754 42.755v5.063c0 8.753-7.097 15.85-15.852 15.85z" fill="#ff425b"/></g><path d="m406.998 159.23c-22.111-9.684-45.67-14.593-70.019-14.593h-95.51c-8.754 0-15.851 7.097-15.851 15.851v127.34c0 8.754 7.097 15.851 15.851 15.851h63.67c8.023 0 15.631 1.91 22.612 5.676z" fill="#ff425b"/><g><path d="m145.965 367.353c-8.754 0-15.851-7.097-15.851-15.851s7.097-15.851 15.851-15.851c8.813 0 15.983-7.17 15.983-15.983v-31.835c0-8.754 7.097-15.851 15.851-15.851s15.851 7.097 15.851 15.851v31.835c.001 26.293-21.391 47.685-47.685 47.685z" fill="#ff425b"/></g><path d="m241.47 144.636h-225.619c-8.754 0-15.851 7.108-15.851 15.862 0 78.95 64.235 143.181 143.191 143.181h98.279z" fill="#ff7889"/><g><g><path d="m143.191 240.014c8.292 0 16.235-7.291 15.851-15.851-.385-8.588-6.965-15.851-15.851-15.851-8.292 0-16.235 7.291-15.851 15.851.384 8.588 6.964 15.851 15.851 15.851z" fill="#384949"/></g></g><path d="m273.304 17.302c-8.754 0-15.851 7.097-15.851 15.851s7.097 15.851 15.851 15.851c8.813 0 15.983 7.17 15.983 15.983s-7.17 15.983-15.983 15.983h-31.834v31.703h31.835c26.294 0 47.686-21.392 47.686-47.686s-21.392-47.685-47.687-47.685z" fill="#d1014f"/></g></svg>