<svg id="Capa_1" enable-background="new 0 0 512 512" height="512" viewBox="0 0 512 512" width="512" xmlns="http://www.w3.org/2000/svg"><g><path d="m117.53 451.038-56.568-56.568 96.991-96.991 56.569 56.569z" fill="#ffd422"/><path d="m83.301 368.4h137.167v40h-137.167z" fill="#eebf00" transform="matrix(.707 -.707 .707 .707 -230.155 221.158)"/><g><path d="m89.246 507.607-84.853-84.853c-5.858-5.858-5.858-15.355 0-21.213l17.678-17.678c13.668-13.668 35.829-13.668 49.497 0l56.569 56.569c13.668 13.668 13.668 35.829 0 49.497l-17.678 17.678c-5.857 5.857-15.355 5.857-21.213 0z" fill="#ffe477"/></g><path d="m154.42 251.514-17.68 17.68c-13.668 13.668-13.668 35.829 0 49.497l56.569 56.569c13.668 13.668 35.829 13.668 49.497 0l17.68-17.68c5.858-5.858 5.858-15.355 0-21.213l-84.853-84.853c-5.857-5.858-15.355-5.858-21.213 0z" fill="#fff5f5"/><g><path d="m193.309 375.26c13.668 13.668 35.829 13.668 49.497 0l17.68-17.68c5.858-5.858 5.858-15.355 0-21.213l-42.426-42.427-53.035 53.035z" fill="#f5f0eb"/></g><g><path d="m327.659 290.407c5.858-5.858 5.858-15.355 0-21.213l-84.853-84.853c-5.858-5.858-15.355-5.858-21.213 0l-67.173 67.173 106.066 106.066z" fill="#ffe477"/></g><path d="m260.486 357.58 67.173-67.173c5.858-5.858 5.858-15.355 0-21.213l-42.426-42.426-77.779 77.779z" fill="#ffd422"/><path d="m313.517 297.478-98.995-98.995c-9.763-9.763-9.763-25.592 0-35.355l106.066-106.066c5.858-5.858 15.355-5.858 21.213 0l113.137 113.137c5.858 5.858 5.858 15.355 0 21.213l-106.066 106.066c-9.763 9.763-25.592 9.763-35.355 0z" fill="#ffd422"/><path d="m313.517 297.478c9.763 9.763 25.592 9.763 35.355 0l106.066-106.066c5.858-5.858 5.858-15.355 0-21.213l-56.568-56.569-134.35 134.35z" fill="#eebf00"/><path d="m478.014 141.169-107.183-107.183c-3.23-3.23-4.71-7.816-3.978-12.325s3.586-8.391 7.672-10.434l2.75-1.375c35.89-17.944 79.066-10.938 107.438 17.435s35.379 71.549 17.435 107.438l-1.375 2.751c-2.042 4.085-5.925 6.94-10.434 7.672-4.509.731-9.095-.749-12.325-3.979z" fill="#beebfa"/><path d="m478.014 141.169c3.23 3.23 7.816 4.711 12.325 3.978 4.509-.732 8.391-3.586 10.434-7.672l1.375-2.751c17.944-35.889 10.938-79.065-17.435-107.438l-60.29 60.29z" fill="#7ed8f7"/><path d="m440.796 198.483-127.279-127.279c-9.763-9.763-9.763-25.592 0-35.355l28.284-28.284c9.763-9.763 25.592-9.763 35.355 0l127.279 127.279c9.763 9.763 9.763 25.592 0 35.355l-28.284 28.284c-9.763 9.763-25.592 9.763-35.355 0z" fill="#ffe477"/><path d="m440.796 198.483c9.763 9.763 25.592 9.763 35.355 0l28.284-28.284c9.763-9.763 9.763-25.592 0-35.355l-63.64-63.64-63.64 63.64z" fill="#ffd422"/><path d="m128.137 489.929c13.668-13.668 13.668-35.829 0-49.497l-28.284-28.284-53.033 53.032 42.426 42.426c5.858 5.858 15.355 5.858 21.213 0z" fill="#ffe477"/></g></svg>