<?xml version="1.0" encoding="iso-8859-1"?>
<!-- Generator: Adobe Illustrator 19.0.0, SVG Export Plug-In . SVG Version: 6.00 Build 0)  -->
<svg version="1.1" id="Capa_1" xmlns="http://www.w3.org/2000/svg" xmlns:xlink="http://www.w3.org/1999/xlink" x="0px" y="0px"
	 viewBox="0 0 512 512" style="enable-background:new 0 0 512 512;" xml:space="preserve">
<path style="fill:#F5C07E;" d="M277.51,456.273l-86.133,48.881c-28.169,15.986-63.608-1.298-68.353-33.338l-14.51-97.968
	c-2.186-14.757-9.392-28.309-20.403-38.373l-73.105-66.812c-23.909-21.851-18.421-60.896,10.584-75.31l88.689-44.073
	c13.359-6.639,24.022-17.68,30.19-31.263l40.951-90.173c13.393-29.491,52.223-36.337,74.894-13.206l69.322,70.729
	c10.442,10.654,24.238,17.382,39.062,19.052l108.507,12.218c27.326,3.077,43.042,32.634,30.312,57.009l-50.547,96.788
	c-6.906,13.223-9.042,28.423-6.048,43.037l19.872,97.022c6.499,31.731-20.89,60.093-52.829,54.705l-97.656-16.474
	C305.6,446.244,290.484,448.91,277.51,456.273z"/>
<g>
	
		<ellipse transform="matrix(-0.1736 -0.9848 0.9848 -0.1736 -35.9357 447.5945)" style="fill:#E683B5;" cx="169.829" cy="238.875" rx="27.15" ry="34.089"/>
	
		<ellipse transform="matrix(0.1736 0.9848 -0.9848 0.1736 494.3634 -175.5976)" style="fill:#E683B5;" cx="351.811" cy="206.767" rx="27.15" ry="34.089"/>
</g>
<g>
	<path style="fill:#495059;" d="M168.285,216.644c-3.571,0.001-6.735-2.56-7.377-6.198c-1.102-6.241,0.295-12.537,3.93-17.729
		c3.635-5.191,9.074-8.656,15.315-9.756c6.239-1.104,12.537,0.295,17.728,3.93c5.192,3.635,8.657,9.074,9.757,15.315
		c0.72,4.079-2.005,7.969-6.084,8.688c-4.085,0.727-7.97-2.005-8.688-6.084c-0.405-2.295-1.679-4.295-3.588-5.632
		s-4.227-1.85-6.52-1.445c-2.296,0.405-4.296,1.68-5.633,3.589c-1.337,1.909-1.85,4.225-1.445,6.52
		c0.72,4.079-2.004,7.969-6.083,8.689C169.156,216.606,168.718,216.644,168.285,216.644z"/>
	<path style="fill:#495059;" d="M311.122,191.457c-3.571,0-6.736-2.56-7.377-6.199c-2.271-12.884,6.362-25.214,19.246-27.484
		c12.884-2.276,25.212,6.362,27.484,19.245c0.72,4.079-2.004,7.969-6.083,8.688c-4.077,0.726-7.969-2.004-8.689-6.083
		c-0.837-4.739-5.366-7.916-10.109-7.079c-2.295,0.405-4.295,1.68-5.632,3.589c-1.337,1.909-1.851,4.225-1.446,6.52
		c0.72,4.079-2.005,7.969-6.084,8.688C311.992,191.42,311.554,191.457,311.122,191.457z"/>
	<path style="fill:#495059;" d="M256.389,227.977c-6.883,0-13.622-2.348-19.066-6.746c-3.223-2.603-3.725-7.325-1.121-10.547
		c2.601-3.222,7.323-3.725,10.547-1.121c3.455,2.792,7.941,3.948,12.296,3.182c4.36-0.77,8.175-3.392,10.467-7.195
		c2.137-3.549,6.746-4.694,10.294-2.554c3.548,2.137,4.691,6.746,2.554,10.294c-4.529,7.519-12.078,12.704-20.709,14.227
		C259.899,227.824,258.139,227.977,256.389,227.977z"/>
</g>
<g style="opacity:0.15;">
	<circle style="fill:#A95425;" cx="184.851" cy="422.03" r="20.623"/>
	<circle style="fill:#A95425;" cx="74.321" cy="235.35" r="20.623"/>
	<circle style="fill:#A95425;" cx="234.981" cy="76.28" r="20.623"/>
	<circle style="fill:#A95425;" cx="440.361" cy="170.81" r="20.623"/>
	<circle style="fill:#A95425;" cx="213.761" cy="340.08" r="20.623"/>
	<circle style="fill:#A95425;" cx="400.341" cy="384.03" r="20.623"/>
	<circle style="fill:#A95425;" cx="345.151" cy="316.91" r="20.623"/>
</g>
<path style="opacity:0.15;fill:#A95425;enable-background:new    ;" d="M466.21,441.63c-81.821-0.6-118.508-91.857-209.233-121.848
	c-89.453-29.571-126.634-99.806-75.451-162.504c50.508-61.87,47.676-111.689,33.738-154.828
	c-12.577,3.413-23.802,12.091-29.844,25.395l-40.951,90.173c-6.168,13.583-16.831,24.624-30.19,31.263l-88.688,44.073
	c-29.005,14.414-34.493,53.459-10.584,75.31l73.105,66.812c11.012,10.064,18.218,23.616,20.403,38.373l14.51,97.968
	c4.745,32.04,40.184,49.324,68.353,33.338l86.132-48.881c12.974-7.363,28.09-10.028,42.8-7.547l97.657,16.474
	C438.573,468.676,457.271,458.093,466.21,441.63z"/>
<g>
</g>
<g>
</g>
<g>
</g>
<g>
</g>
<g>
</g>
<g>
</g>
<g>
</g>
<g>
</g>
<g>
</g>
<g>
</g>
<g>
</g>
<g>
</g>
<g>
</g>
<g>
</g>
<g>
</g>
</svg>
