<svg id="Capa_1" enable-background="new 0 0 510 510" height="512" viewBox="0 0 510 510" width="512" xmlns="http://www.w3.org/2000/svg" xmlns:xlink="http://www.w3.org/1999/xlink"><linearGradient id="lg1"><stop offset="0" stop-color="#ffd945"/><stop offset=".3043" stop-color="#ffcd3e"/><stop offset=".8558" stop-color="#ffad2b"/><stop offset="1" stop-color="#ffa325"/></linearGradient><linearGradient id="SVGID_1_" gradientUnits="userSpaceOnUse" x1="287.289" x2="287.289" xlink:href="#lg1" y1="392.964" y2="451.726"/><linearGradient id="lg2"><stop offset="0" stop-color="#8a7889"/><stop offset="1" stop-color="#6e566e"/></linearGradient><linearGradient id="SVGID_2_" gradientUnits="userSpaceOnUse" x1="314.171" x2="314.171" xlink:href="#lg2" y1="66.369" y2="163.837"/><linearGradient id="SVGID_3_" gradientUnits="userSpaceOnUse" x1="287.711" x2="287.711" xlink:href="#lg2" y1="138.934" y2="168.506"/><linearGradient id="SVGID_4_" gradientUnits="userSpaceOnUse" x1="287.289" x2="287.289" xlink:href="#lg2" y1="161.831" y2="191.403"/><linearGradient id="SVGID_5_" gradientUnits="userSpaceOnUse" x1="42.559" x2="42.559" xlink:href="#lg1" y1="295.454" y2="327.704"/><linearGradient id="SVGID_6_" gradientTransform="matrix(.525 -.851 .851 .525 839.971 1204.654)" gradientUnits="userSpaceOnUse" x1="292.497" x2="328.983" xlink:href="#lg2" y1="-1097.468" y2="-1097.468"/><linearGradient id="SVGID_7_" gradientTransform="matrix(.525 .851 .851 -.525 839.971 -566.781)" gradientUnits="userSpaceOnUse" x1="265.045" x2="301.531" xlink:href="#lg2" y1="-1080.557" y2="-1080.557"/><linearGradient id="SVGID_8_" gradientUnits="userSpaceOnUse" x1="269.435" x2="269.435" xlink:href="#lg1" y1="230.58" y2="436.411"/><linearGradient id="lg3"><stop offset="0" stop-color="#e87264" stop-opacity="0"/><stop offset=".6519" stop-color="#f67150" stop-opacity=".652"/><stop offset="1" stop-color="#ff7044"/></linearGradient><linearGradient id="SVGID_9_" gradientUnits="userSpaceOnUse" x1="393.748" x2="272.772" xlink:href="#lg3" y1="379.588" y2="258.612"/><linearGradient id="SVGID_10_" gradientUnits="userSpaceOnUse" x1="281.233" x2="113.92" xlink:href="#lg3" y1="408.21" y2="240.897"/><linearGradient id="SVGID_11_" gradientUnits="userSpaceOnUse" x1="162.893" x2="215.158" xlink:href="#lg2" y1="289.87" y2="342.135"/><linearGradient id="SVGID_12_" gradientTransform="matrix(-1 0 0 -1 3542 490)" gradientUnits="userSpaceOnUse" x1="3356.055" x2="3393.035" xlink:href="#lg2" y1="177.078" y2="214.058"/><linearGradient id="lg4"><stop offset="0" stop-color="#f8f6fb"/><stop offset="1" stop-color="#efdcfb"/></linearGradient><linearGradient id="SVGID_13_" gradientUnits="userSpaceOnUse" x1="166.893" x2="180.035" xlink:href="#lg4" y1="293.87" y2="307.013"/><linearGradient id="SVGID_14_" gradientUnits="userSpaceOnUse" x1="460.947" x2="460.947" xlink:href="#lg4" y1="268.182" y2="408.726"/><linearGradient id="SVGID_15_" gradientUnits="userSpaceOnUse" x1="303.617" x2="355.334" xlink:href="#lg2" y1="289.457" y2="341.174"/><linearGradient id="SVGID_16_" gradientTransform="matrix(-1 0 0 -1 3542 490)" gradientUnits="userSpaceOnUse" x1="3215.573" x2="3252.166" xlink:href="#lg2" y1="177.733" y2="214.326"/><linearGradient id="SVGID_17_" gradientUnits="userSpaceOnUse" x1="307.575" x2="320.579" xlink:href="#lg4" y1="293.415" y2="306.419"/><linearGradient id="lg5"><stop offset="0" stop-color="#cdec7a"/><stop offset=".34" stop-color="#c1ea76"/><stop offset=".9563" stop-color="#a1e66b"/><stop offset="1" stop-color="#9ee66a"/></linearGradient><linearGradient id="SVGID_18_" gradientTransform="matrix(1 -.021 .021 1 -129.197 310.149)" gradientUnits="userSpaceOnUse" x1="561.045" x2="574.333" xlink:href="#lg5" y1="-165.701" y2="-122.294"/><linearGradient id="lg6"><stop offset="0" stop-color="#9ee66a" stop-opacity="0"/><stop offset=".1524" stop-color="#93e267" stop-opacity=".152"/><stop offset=".4172" stop-color="#77d660" stop-opacity=".417"/><stop offset=".7603" stop-color="#49c254" stop-opacity=".76"/><stop offset="1" stop-color="#25b34b"/></linearGradient><linearGradient id="SVGID_19_" gradientTransform="matrix(.937 -.35 .35 .937 115.556 735.963)" gradientUnits="userSpaceOnUse" x1="493.62" x2="546.942" xlink:href="#lg6" y1="-425.017" y2="-425.017"/><linearGradient id="SVGID_20_" gradientTransform="matrix(1 -.021 .021 1 -129.197 310.149)" gradientUnits="userSpaceOnUse" x1="611.093" x2="620.334" xlink:href="#lg5" y1="-195.806" y2="-165.618"/><linearGradient id="SVGID_21_" gradientTransform="matrix(.937 -.35 .35 .937 115.556 735.963)" gradientUnits="userSpaceOnUse" x1="554.015" x2="591.098" xlink:href="#lg6" y1="-446.216" y2="-446.216"/><linearGradient id="SVGID_22_" gradientTransform="matrix(1 -.021 .021 1 -129.197 310.149)" gradientUnits="userSpaceOnUse" x1="569.988" x2="579.229" xlink:href="#lg5" y1="-227.238" y2="-197.05"/><linearGradient id="SVGID_23_" gradientTransform="matrix(.937 -.35 .35 .937 115.556 735.963)" gradientUnits="userSpaceOnUse" x1="525.603" x2="562.685" xlink:href="#lg6" y1="-489.463" y2="-489.463"/><g><path d="m341.784 443.631h-108.989c-16.629 0-30.109-13.48-30.109-30.109v-34.766h169.207v34.766c0 16.628-13.48 30.109-30.109 30.109z" fill="url(#SVGID_1_)"/><path d="m285.983 163.823c-12.065-.428-21.453-10.711-21.453-22.783v-30.734c0-24.265 19.671-43.936 43.936-43.936h32.547c12.073 0 22.355 9.388 22.783 21.453.45 12.666-9.684 23.075-22.25 23.075h-23.653c-4.88 0-8.835 3.956-8.835 8.835v21.84c.001 12.566-10.408 22.7-23.075 22.25z" fill="url(#SVGID_2_)"/><g><path d="m360.913 181.529h-146.404v-27.256c0-10.238 8.3-18.538 18.538-18.538h109.328c10.238 0 18.538 8.3 18.538 18.538z" fill="url(#SVGID_3_)"/><path d="m370.963 204.426h-167.347c-5.114 0-9.259-4.145-9.259-9.259v-17.997c0-10.238 8.3-18.538 18.538-18.538h148.789c10.238 0 18.538 8.3 18.538 18.538v17.997c0 5.114-4.146 9.259-9.259 9.259z" fill="url(#SVGID_4_)"/></g><g><ellipse cx="42.559" cy="303.063" fill="url(#SVGID_5_)" rx="28.201" ry="25.392"/><g><path d="m131.927 381.103-41.614 21.979c-10.76 5.683-23.722 5.254-34.083-1.128l-49.989-30.794c-8.648-5.327-8.227-18.037.754-22.78l38.662-20.42z" fill="url(#SVGID_6_)"/><path d="m131.927 224.527-41.614-21.979c-10.76-5.683-23.722-5.254-34.083 1.128l-49.989 30.794c-8.648 5.327-8.227 18.037.754 22.78l38.662 20.42z" fill="url(#SVGID_7_)"/></g><path d="m394.226 187.041h-169.47c-52.615 0-103.338 19.627-142.249 55.042l-31.444 28.619c-18.927 17.226-18.927 47.001 0 64.228l31.444 28.619c38.911 35.415 89.634 55.042 142.249 55.042h169.469c14.409 0 28.202-2.632 40.927-7.442 43.743-16.535 66.848-58.802 66.848-108.334 0-49.531-23.103-91.796-66.844-108.331-12.725-4.811-26.52-7.443-40.93-7.443z" fill="url(#SVGID_8_)"/><path d="m355.756 267.51c-9.592-10.53-21.414-15.14-36.781-15.14-28.965 0-52.445 23.48-52.445 52.445 0 15.366 4.61 27.188 15.14 36.78l76.994 76.994h35.562c31.165 0 59.451-12.318 80.263-32.346z" fill="url(#SVGID_9_)"/><path d="m214.618 267.51c-9.592-10.53-21.414-15.14-36.781-15.14-28.965 0-52.445 23.48-52.445 52.445 0 15.366 4.61 27.188 15.14 36.78l76.851 76.851c2.453.086 4.91.143 7.372.143h140.941z" fill="url(#SVGID_10_)"/><g><circle cx="176.393" cy="303.37" fill="url(#SVGID_11_)" r="53"/><circle cx="176.393" cy="303.37" fill="url(#SVGID_12_)" r="37.5"/><circle cx="176.393" cy="303.37" fill="url(#SVGID_13_)" r="30"/></g><path d="m435.009 194.437c-14.482 29.887-23.115 67.505-23.115 108.378s8.633 78.492 23.115 108.378c43.816-16.496 74.991-58.793 74.991-108.378 0-49.584-31.175-91.881-74.991-108.378z" fill="url(#SVGID_14_)"/></g><g><circle cx="316.975" cy="302.815" fill="url(#SVGID_15_)" r="52.445"/><circle cx="316.975" cy="302.815" fill="url(#SVGID_16_)" r="37.107"/><circle cx="316.975" cy="302.815" fill="url(#SVGID_17_)" r="29.686"/></g><g><g><circle cx="436.296" cy="157.142" fill="url(#SVGID_18_)" r="29.26"/><path d="m449.734 131.145c2.352 4.106 3.74 8.842 3.847 13.906.341 16.156-12.479 29.531-28.636 29.872-5.064.107-9.854-1.08-14.056-3.257 5.152 8.994 14.932 14.964 26.024 14.73 16.156-.341 28.977-13.716 28.636-29.872-.233-11.093-6.611-20.612-15.815-25.379z" fill="url(#SVGID_19_)"/></g><g><circle cx="483.237" cy="118.522" fill="url(#SVGID_20_)" r="20.349"/><path d="m492.583 100.443c1.636 2.856 2.601 6.149 2.676 9.671.237 11.236-8.679 20.537-19.915 20.774-3.522.074-6.853-.751-9.775-2.265 3.583 6.255 10.385 10.407 18.099 10.244 11.236-.237 20.152-9.538 19.915-20.774-.164-7.715-4.6-14.335-11-17.65z" fill="url(#SVGID_21_)"/></g><g><circle cx="441.478" cy="87.965" fill="url(#SVGID_22_)" r="20.349"/><path d="m450.824 69.886c1.636 2.856 2.601 6.149 2.676 9.671.237 11.236-8.679 20.537-19.915 20.774-3.522.074-6.853-.751-9.775-2.265 3.583 6.255 10.385 10.407 18.099 10.244 11.236-.237 20.152-9.538 19.915-20.774-.164-7.715-4.6-14.335-11-17.65z" fill="url(#SVGID_23_)"/></g></g></g></svg>