<svg xmlns="http://www.w3.org/2000/svg" version="1.1" xmlns:xlink="http://www.w3.org/1999/xlink" xmlns:svgjs="http://svgjs.com/svgjs" width="1440" height="150" preserveAspectRatio="none" viewBox="0 0 1440 150">
<g mask="url(&quot;#SvgjsMask1057&quot;)" fill="none">
<path d="M 0,7 C 48,15.2 144,48 240,48 C 336,48 384,6.6 480,7 C 576,7.4 624,48.2 720,50 C 816,51.8 864,20.8 960,16 C 1056,11.2 1104,29.2 1200,26 C 1296,22.8 1392,5.2 1440,0L1440 150L0 150z" fill="rgba(7, 14, 96, 0.82)"></path>
<path d="M 0,78 C 41.2,72.4 123.6,46.2 206,50 C 288.4,53.8 329.6,96.6 412,97 C 494.4,97.4 535.6,55.4 618,52 C 700.4,48.6 741.6,76.4 824,80 C 906.4,83.6 947.6,69.8 1030,70 C 1112.4,70.2 1154,82.2 1236,81 C 1318,79.8 1399.2,67.4 1440,64L1440 150L0 150z" fill="rgba(21, 86, 153, 0.75)"></path>
<path d="M 0,131 C 57.6,125.6 172.8,103.4 288,104 C 403.2,104.6 460.8,132.4 576,134 C 691.2,135.6 748.8,109.8 864,112 C 979.2,114.2 1036.8,143.6 1152,145 C 1267.2,146.4 1382.4,124.2 1440,119L1440 150L0 150z" fill="#2264ab"></path></g><defs><mask id="SvgjsMask1057"><rect width="1440" height="150" fill="#ffffff"></rect></mask></defs>
</svg>
