<?xml version="1.0" encoding="UTF-8" standalone="no"?>
<!-- Created with Inkscape (http://www.inkscape.org/) -->

<svg
   xmlns:dc="http://purl.org/dc/elements/1.1/"
   xmlns:cc="http://creativecommons.org/ns#"
   xmlns:rdf="http://www.w3.org/1999/02/22-rdf-syntax-ns#"
   xmlns:svg="http://www.w3.org/2000/svg"
   xmlns="http://www.w3.org/2000/svg"
   xmlns:sodipodi="http://sodipodi.sourceforge.net/DTD/sodipodi-0.dtd"
   xmlns:inkscape="http://www.inkscape.org/namespaces/inkscape"
   width="381mm"
   height="121.40781mm"
   viewBox="0 0 381 121.40782"
   version="1.1"
   id="svg8"
   inkscape:version="0.92.5 (2060ec1f9f, 2020-04-08)"
   sodipodi:docname="waves-combined.svg">
  <defs
     id="defs2" />
  <sodipodi:namedview
     id="base"
     pagecolor="#ffffff"
     bordercolor="#666666"
     borderopacity="1.0"
     inkscape:pageopacity="0.0"
     inkscape:pageshadow="2"
     inkscape:zoom="0.35"
     inkscape:cx="532.9922"
     inkscape:cy="216.8718"
     inkscape:document-units="mm"
     inkscape:current-layer="layer1"
     showgrid="false"
     inkscape:window-width="1848"
     inkscape:window-height="1016"
     inkscape:window-x="72"
     inkscape:window-y="27"
     inkscape:window-maximized="1" />
  <metadata
     id="metadata5">
    <rdf:RDF>
      <cc:Work
         rdf:about="">
        <dc:format>image/svg+xml</dc:format>
        <dc:type
           rdf:resource="http://purl.org/dc/dcmitype/StillImage" />
        <dc:title></dc:title>
      </cc:Work>
    </rdf:RDF>
  </metadata>
  <g
     inkscape:label="Calque 1"
     inkscape:groupmode="layer"
     id="layer1"
     transform="translate(-220.53124,-168.26156)">
    <path
       style="fill:#96c4d3;fill-opacity:0.70999995;stroke-width:0.7379992"
       d="m 865.98242,124.57227 c -114.375,-0.19888 -228.75,32.40088 -343.125,42.20507 -120,10.67951 -240,-3.73403 -300,-10.48242 l -60,-7.00976 v 83.86328 176 174.28711 l 80,-26.14258 c 79.99975,-26.14288 240.0002,-78.42875 400,-92.9707 159.99999,-14.32411 320.00001,8.5509 479.99998,29.08398 160,20.31519 320,37.74276 400,46.45703 l 80,8.71484 v -139.42968 -176 V 170.25 l -60,7.01172 c -60,6.74838 -180.0001,21.16084 -300,6.94336 -120,-13.95538 -240,-55.88694 -359.99998,-59.35938 -5.625,-0.17505 -11.25,-0.26365 -16.875,-0.27343 z"
       transform="matrix(0.26458333,0,0,0.26458333,177.44188,135.30205)"
       id="path2275"
       inkscape:connector-curvature="0" />
  </g>
</svg>
