<svg height="512" viewBox="0 0 64 64" width="512" xmlns="http://www.w3.org/2000/svg"><g id="Icons"><g><g><g><path d="m32 4c-.521 0-.996.199-1.352.526-.364.334-.932.334-1.296 0-.356-.327-.831-.526-1.352-.526s-.996.199-1.352.526c-.364.334-.932.334-1.296 0-.356-.327-.831-.526-1.352-.526s-.996.199-1.352.526c-.364.334-.932.334-1.296 0-.356-.327-.831-.526-1.352-.526-1.215 0-2.176 1.083-1.973 2.336.16.983 1.084 1.664 2.08 1.664h1.893c1.105 0 2 .895 2 2v4h4v-4c0-1.105.895-2 2-2h1.893c.996 0 1.92-.681 2.08-1.664.203-1.253-.758-2.336-1.973-2.336z" fill="#01a0c8"/></g></g><g><g><path d="m32 12h-16c-4.418 0-8 3.582-8 8v14c0 2.209 1.791 4 4 4h21c3.939 0 7.111 3.242 6.997 7.207-.11 3.834-3.451 6.793-7.286 6.793h-14.711c0-4.392-3.558-8-8-8h-1c-.552 0-1 .448-1 1v3c0 2.21 1.79 4 4 4-2.21 0-4 1.79-4 4v3c0 .552.448 1 1 1h1c3.807 0 6.944-2.64 7.776-6.151 4.443 3.791 12.558 6.151 18.224 6.151 5.52 0 10.52-2.24 14.14-5.86s5.86-8.62 5.86-14.14v-4c0-13.255-10.745-24-24-24z" fill="#0b5078"/></g></g><g><g><circle cx="18" cy="22" fill="#f0f0f0" r="2"/></g></g><g><g><path d="m43.99 43.55c-.3 6.1-5.87 10.66-11.98 10.43-3.15-.12-6.24-.79-9.12-1.98h9.82c3.84 0 7.18-2.96 7.29-6.79.114-3.983-3.083-7.21-7-7.21h-21c-2.21 0-4-1.79-4-4v-2h25c6.294 0 11.289 5.249 10.99 11.55z" fill="#f0f0f0"/></g></g><g><g><g><path d="m33.4 38.02c-.13-.02-.27-.02-.4-.02h-7.4c-2.31-2.29-4.06-4.69-4.95-6h12.35c.21 0 .41.01.62.01-.49 1.73-.43 3.98-.22 6.01z" fill="#d2d2d2"/></g></g></g><g><g><g><path d="m20 30s5.509 9.104 12.66 11.931c.718.284 1.462-.355 1.323-1.115-.467-2.558-1.416-7.949.017-10.816z" fill="#0b5078"/></g></g></g><g><g><circle cx="18" cy="22" fill="#0b5078" r="1"/></g></g></g></g></svg>