<svg id="Capa_1" enable-background="new 0 0 512 512" height="512" viewBox="0 0 512 512" width="512" xmlns="http://www.w3.org/2000/svg"><g><path d="m164.393 512h-69.393c-52.383 0-95-42.617-95-95v-69.393c0-24.73 20.12-44.85 44.85-44.85 8.284 0 15 6.716 15 15s-6.716 15-15 15c-8.188 0-14.85 6.662-14.85 14.85v69.393c0 35.841 29.159 65 65 65h69.393c8.188 0 14.85-6.662 14.85-14.85 0-8.284 6.716-15 15-15s15 6.716 15 15c0 24.73-20.12 44.85-44.85 44.85z" fill="#09607d"/><path d="m44.85 209.243c-24.73 0-44.85-20.12-44.85-44.85v-69.393c0-52.383 42.617-95 95-95h69.393c24.73 0 44.85 20.12 44.85 44.85 0 8.284-6.716 15-15 15s-15-6.716-15-15c0-8.188-6.662-14.85-14.85-14.85h-69.393c-35.841 0-65 29.159-65 65v69.393c0 8.188 6.662 14.85 14.85 14.85 8.284 0 15 6.716 15 15s-6.716 15-15 15z" fill="#09607d"/><path d="m477.021 175.822c.001.002.002.004.002.006-11.569-31.956-30.108-61.252-54.854-85.998-24.745-24.744-54.039-43.282-85.992-54.851h-160.356c-31.953 11.568-61.247 30.106-85.991 54.851-24.747 24.747-43.286 54.045-54.855 86.003.001-.003.003-.007.004-.01v160.356c0-.001-.001-.002-.001-.002 11.569 31.955 30.107 61.25 54.852 85.995 24.745 24.744 54.039 43.282 85.992 54.851h160.356c31.953-11.569 61.248-30.107 85.992-54.851 24.745-24.745 43.283-54.039 54.852-85.993v.001zm-111.226 128.556c-12.088 27.322-34.074 49.326-61.396 61.417l-48.399 35.205-48.398-35.205c-27.322-12.091-49.308-34.095-61.397-61.417v.021c-.017-.038-.026-.076-.042-.114.014.031.029.062.042.093l-40.205-48.378 40.205-48.378c-.014.032-.029.062-.043.094.016-.038.026-.077.043-.115v.021c12.089-27.322 34.074-49.326 61.396-61.417l48.399-35.205 48.399 35.205c27.322 12.091 49.308 34.095 61.396 61.417l40.205 48.378z" fill="#fff5f5"/><g><path d="m477.021 175.822c.001.002.002.004.002.006-11.569-31.956-30.108-61.252-54.854-85.998-24.745-24.744-54.039-43.282-85.992-54.851h-80.178v76.021l48.399 35.205c27.322 12.091 49.308 34.095 61.396 61.417l40.206 48.378-40.205 48.378c-12.088 27.322-34.074 49.326-61.396 61.417l-48.399 35.205v76.022h80.178c31.953-11.569 61.248-30.107 85.992-54.851 24.745-24.745 43.283-54.039 54.852-85.993v.001z" fill="#f5f0eb"/></g><path d="m467.15 209.243c-8.284 0-15-6.716-15-15s6.716-15 15-15c8.188 0 14.85-6.662 14.85-14.85v-69.393c0-35.841-29.159-65-65-65h-69.393c-8.188 0-14.85 6.662-14.85 14.85 0 8.284-6.716 15-15 15s-15-6.716-15-15c0-24.73 20.12-44.85 44.85-44.85h69.393c52.383 0 95 42.617 95 95v69.393c0 24.73-20.12 44.85-44.85 44.85z" fill="#07485e"/><path d="m417 512h-69.393c-24.73 0-44.85-20.12-44.85-44.85 0-8.284 6.716-15 15-15s15 6.716 15 15c0 8.188 6.662 14.85 14.85 14.85h69.393c35.841 0 65-29.159 65-65v-69.393c0-8.188-6.662-14.85-14.85-14.85-8.284 0-15-6.716-15-15s6.716-15 15-15c24.73 0 44.85 20.12 44.85 44.85v69.393c0 52.383-42.617 95-95 95z" fill="#07485e"/><path d="m256 376c17.212 0 33.586-3.65 48.399-10.205l31.779 111.227c-25.364 9.183-52.401 13.978-80.178 13.978s-54.815-4.795-80.178-13.978l31.779-111.227c14.813 6.555 31.187 10.205 48.399 10.205z" fill="#ff6c6c"/><path d="m136 256c0-17.212 3.65-33.586 10.205-48.399l-111.227-31.779c-9.183 25.364-13.978 52.401-13.978 80.178s4.795 54.815 13.978 80.178l111.227-31.779c-6.555-14.813-10.205-31.187-10.205-48.399z" fill="#ff6c6c"/><path d="m376 256c0-17.212-3.65-33.586-10.205-48.399l111.227-31.779c9.182 25.364 13.978 52.401 13.978 80.178s-4.795 54.815-13.978 80.178l-111.227-31.779c6.555-14.813 10.205-31.187 10.205-48.399z" fill="#ff405c"/><path d="m256 136c17.212 0 33.586 3.65 48.399 10.205l31.779-111.227c-25.364-9.183-52.401-13.978-80.178-13.978s-54.815 4.795-80.178 13.978l31.779 111.227c14.813-6.555 31.187-10.205 48.399-10.205z" fill="#ff6c6c"/><g fill="#ff405c"><path d="m256 376v115c27.777 0 54.814-4.795 80.178-13.979l-31.779-111.227c-14.813 6.556-31.187 10.206-48.399 10.206z"/><path d="m336.178 34.979c-25.364-9.184-52.401-13.979-80.178-13.979v115c17.212 0 33.586 3.65 48.399 10.205z"/></g></g></svg>