<?xml version="1.0" encoding="UTF-8" standalone="no"?>
<!-- Created with Inkscape (http://www.inkscape.org/) -->

<svg
   xmlns:dc="http://purl.org/dc/elements/1.1/"
   xmlns:cc="http://creativecommons.org/ns#"
   xmlns:rdf="http://www.w3.org/1999/02/22-rdf-syntax-ns#"
   xmlns:svg="http://www.w3.org/2000/svg"
   xmlns="http://www.w3.org/2000/svg"
   xmlns:sodipodi="http://sodipodi.sourceforge.net/DTD/sodipodi-0.dtd"
   xmlns:inkscape="http://www.inkscape.org/namespaces/inkscape"
   width="89.875938mm"
   height="33.375702mm"
   viewBox="0 0 89.875938 33.375702"
   version="1.1"
   id="svg8"
   inkscape:version="0.92.5 (2060ec1f9f, 2020-04-08)"
   sodipodi:docname="logo.svg">
  <defs
     id="defs2">
    <rect
       id="rect877"
       height="227.28432"
       width="299.51022"
       y="-56.568542"
       x="-43.941635" />
  </defs>
  <sodipodi:namedview
     id="base"
     pagecolor="#ffffff"
     bordercolor="#666666"
     borderopacity="1.0"
     inkscape:pageopacity="0.0"
     inkscape:pageshadow="2"
     inkscape:zoom="0.90509668"
     inkscape:cx="31.25879"
     inkscape:cy="263.71027"
     inkscape:document-units="mm"
     inkscape:current-layer="layer1"
     showgrid="false"
     inkscape:window-width="1848"
     inkscape:window-height="1016"
     inkscape:window-x="72"
     inkscape:window-y="27"
     inkscape:window-maximized="1" />
  <metadata
     id="metadata5">
    <rdf:RDF>
      <cc:Work
         rdf:about="">
        <dc:format>image/svg+xml</dc:format>
        <dc:type
           rdf:resource="http://purl.org/dc/dcmitype/StillImage" />
        <dc:title></dc:title>
      </cc:Work>
    </rdf:RDF>
  </metadata>
  <g
     inkscape:label="Calque 1"
     inkscape:groupmode="layer"
     id="layer1"
     transform="translate(115.24154,-197.68656)">
    <g
       id="g1203"
       transform="matrix(0.97397959,0,0,0.95620676,-1.8293277,9.5343135)">
      <g
         id="text1113-5"
         style="font-style:normal;font-variant:normal;font-weight:normal;font-stretch:normal;font-size:22.20242691px;line-height:1.25;font-family:'Gill Sans MT Condensed';-inkscape-font-specification:'Gill Sans MT Condensed, ';display:inline;fill:#6f7c91;stroke:none;stroke-width:0.26838982"
         transform="scale(0.99476609,1.0052615)"
         aria-label="C  d">
        <path
           id="path1178"
           style="font-style:normal;font-variant:normal;font-weight:normal;font-stretch:normal;font-size:22.20242691px;font-family:'Gill Sans MT Condensed';-inkscape-font-specification:'Gill Sans MT Condensed, ';fill:#6f7c91;stroke:none;stroke-width:0.26838982;stroke-opacity:1"
           d="m -102.79528,198.58159 v 2.30913 q -1.10578,-1.02989 -2.36334,-1.53942 -1.24672,-0.50953 -2.65606,-0.50953 -2.7753,0 -4.24968,1.70204 -1.47438,1.6912 -1.47438,4.90015 0,3.1981 1.47438,4.90014 1.47438,1.6912 4.24968,1.6912 1.40934,0 2.65606,-0.50953 1.25756,-0.50952 2.36334,-1.53942 v 2.28745 q -1.14915,0.78056 -2.43923,1.17084 -1.27924,0.39027 -2.71026,0.39027 -3.67511,0 -5.78911,-2.24409 -2.114,-2.25493 -2.114,-6.14686 0,-3.90277 2.114,-6.14687 2.114,-2.25493 5.78911,-2.25493 1.4527,0 2.73194,0.39028 1.29008,0.37943 2.41755,1.14915 z"
           inkscape:connector-curvature="0" />
        <path
           id="path1180"
           style="font-style:normal;font-variant:normal;font-weight:normal;font-stretch:normal;font-size:22.20242691px;font-family:'Gill Sans MT Condensed';-inkscape-font-specification:'Gill Sans MT Condensed, ';fill:#6f7c91;stroke:none;stroke-width:0.26838982;stroke-opacity:1"
           d="m -77.394749,203.22155 v -6.56967 H -75.4 v 16.86864 h -1.994749 v -1.82129 q -0.62878,1.0841 -1.593631,1.61531 -0.954011,0.52037 -2.298298,0.52037 -2.200729,0 -3.588381,-1.75624 -1.376811,-1.75625 -1.376811,-4.61828 0,-2.86203 1.376811,-4.61828 1.387652,-1.75625 3.588381,-1.75625 1.344287,0 2.298298,0.53121 0.964851,0.52037 1.593631,1.60448 z m -6.797325,4.23884 q 0,2.20073 0.899805,3.45829 0.910647,1.24671 2.493437,1.24671 1.58279,0 2.493437,-1.24671 0.910646,-1.25756 0.910646,-3.45829 0,-2.20073 -0.910646,-3.44745 -0.910647,-1.25756 -2.493437,-1.25756 -1.58279,0 -2.493437,1.25756 -0.899805,1.24672 -0.899805,3.44745 z"
           inkscape:connector-curvature="0" />
      </g>
      <g
         id="text1149-1"
         style="font-style:normal;font-variant:normal;font-weight:normal;font-stretch:normal;font-size:25.39999962px;line-height:1.25;font-family:'Gill Sans MT Condensed';-inkscape-font-specification:'Gill Sans MT Condensed, ';display:inline;stroke:none;stroke-width:0.26458201"
         transform="scale(0.97823419,1.0222501)"
         aria-label="access">
        <path
           id="path1165"
           style="font-style:normal;font-variant:normal;font-weight:normal;font-stretch:normal;font-size:25.39999962px;font-family:'Gill Sans MT Condensed';-inkscape-font-specification:'Gill Sans MT Condensed, ';fill:#6f7c91;stroke:none;stroke-width:0.26458201;stroke-opacity:1"
           d="m -101.57188,218.69082 q -2.76573,0 -3.83233,0.63252 -1.0666,0.63252 -1.0666,2.15801 0,1.21543 0.79375,1.93476 0.80615,0.70694 2.18281,0.70694 1.89756,0 3.03858,-1.33946 1.153416,-1.35185 1.153416,-3.58427 v -0.5085 z m 4.551657,-0.94258 v 7.9251 h -2.282031 v -2.1084 q -0.781346,1.26504 -1.947166,1.87276 -1.16582,0.59531 -2.85254,0.59531 -2.1332,0 -3.39824,-1.19063 -1.25264,-1.20302 -1.25264,-3.2122 0,-2.34405 1.5627,-3.53467 1.57509,-1.19063 4.68808,-1.19063 h 3.199806 v -0.22324 q 0,-1.5751 -1.041796,-2.43086 -1.0294,-0.86816 -2.90215,-0.86816 -1.19062,0 -2.31924,0.28525 -1.12861,0.28526 -2.17041,0.85576 v -2.1084 q 1.25264,-0.48369 2.43086,-0.71933 1.17822,-0.24805 2.29444,-0.24805 3.013765,0 4.502046,1.5627 1.488281,1.56269 1.488281,4.73769 z"
           inkscape:connector-curvature="0" />
        <path
           id="path1167"
           style="font-style:normal;font-variant:normal;font-weight:normal;font-stretch:normal;font-size:25.39999962px;font-family:'Gill Sans MT Condensed';-inkscape-font-specification:'Gill Sans MT Condensed, ';fill:#6f7c91;stroke:none;stroke-width:0.26458201;stroke-opacity:1"
           d="m -82.323445,212.31602 v 2.1332 q -0.967383,-0.5333 -1.947168,-0.79375 -0.967383,-0.27285 -1.959571,-0.27285 -2.220019,0 -3.447851,1.41386 -1.227832,1.40147 -1.227832,3.94395 0,2.54248 1.227832,3.95635 1.227832,1.40146 3.447851,1.40146 0.992188,0 1.959571,-0.26045 0.979785,-0.27285 1.947168,-0.80615 v 2.1084 q -0.954981,0.44648 -1.984375,0.66973 -1.016992,0.22324 -2.17041,0.22324 -3.137793,0 -4.985743,-1.97197 -1.847949,-1.97198 -1.847949,-5.32061 0,-3.39824 1.860352,-5.34541 1.872754,-1.94717 5.122168,-1.94717 1.054199,0 2.058789,0.22324 1.00459,0.21084 1.947168,0.64493 z"
           inkscape:connector-curvature="0" />
        <path
           id="path1169"
           style="font-style:normal;font-variant:normal;font-weight:normal;font-stretch:normal;font-size:25.39999962px;font-family:'Gill Sans MT Condensed';-inkscape-font-specification:'Gill Sans MT Condensed, ';fill:#6f7c91;stroke:none;stroke-width:0.26458201;stroke-opacity:1"
           d="m -68.358407,212.31602 v 2.1332 q -0.967383,-0.5333 -1.947168,-0.79375 -0.967383,-0.27285 -1.95957,-0.27285 -2.22002,0 -3.447852,1.41386 -1.227832,1.40147 -1.227832,3.94395 0,2.54248 1.227832,3.95635 1.227832,1.40146 3.447852,1.40146 0.992187,0 1.95957,-0.26045 0.979785,-0.27285 1.947168,-0.80615 v 2.1084 q -0.95498,0.44648 -1.984375,0.66973 -1.016992,0.22324 -2.17041,0.22324 -3.137793,0 -4.985742,-1.97197 -1.847949,-1.97198 -1.847949,-5.32061 0,-3.39824 1.860351,-5.34541 1.872754,-1.94717 5.122168,-1.94717 1.054199,0 2.058789,0.22324 1.00459,0.21084 1.947168,0.64493 z"
           inkscape:connector-curvature="0" />
        <path
           id="path1171"
           style="font-style:normal;font-variant:normal;font-weight:normal;font-stretch:normal;font-size:25.39999962px;font-family:'Gill Sans MT Condensed';-inkscape-font-specification:'Gill Sans MT Condensed, ';fill:#6f7c91;stroke:none;stroke-width:0.26458201;stroke-opacity:1"
           d="m -52.508212,218.15752 v 1.11621 h -10.492383 q 0.148828,2.35645 1.413867,3.59668 1.277441,1.22783 3.54707,1.22783 1.314649,0 2.542481,-0.32246 1.240234,-0.32246 2.455664,-0.96738 v 2.15801 q -1.227832,0.52089 -2.517676,0.79375 -1.289844,0.27285 -2.616895,0.27285 -3.323828,0 -5.270996,-1.93477 -1.934765,-1.93476 -1.934765,-5.23379 0,-3.41064 1.835547,-5.40742 1.847949,-2.00918 4.97334,-2.00918 2.802929,0 4.427636,1.81074 1.63711,1.79834 1.63711,4.89893 z m -2.282032,-0.66973 q -0.0248,-1.87275 -1.054199,-2.98896 -1.016992,-1.11621 -2.703711,-1.11621 -1.909961,0 -3.063379,1.079 -1.141015,1.07901 -1.314648,3.03858 z"
           inkscape:connector-curvature="0" />
        <path
           id="path1173"
           style="font-style:normal;font-variant:normal;font-weight:normal;font-stretch:normal;font-size:25.39999962px;font-family:'Gill Sans MT Condensed';-inkscape-font-specification:'Gill Sans MT Condensed, ';fill:#6f7c91;stroke:none;stroke-width:0.26458201;stroke-opacity:1"
           d="M -39.907431,212.19199 V 214.35 q -0.967383,-0.49609 -2.00918,-0.74414 -1.041797,-0.24805 -2.158008,-0.24805 -1.699121,0 -2.554882,0.5209 -0.84336,0.5209 -0.84336,1.5627 0,0.79375 0.607715,1.25263 0.607715,0.44649 2.443262,0.85576 l 0.781347,0.17364 q 2.43086,0.5209 3.447852,1.47588 1.029394,0.94257 1.029394,2.6417 0,1.93476 -1.53789,3.06337 -1.525488,1.12862 -4.204395,1.12862 -1.116211,0 -2.33164,-0.22324 -1.203028,-0.21084 -2.542481,-0.64493 v -2.35644 q 1.265039,0.65732 2.492871,0.99219 1.227832,0.32246 2.43086,0.32246 1.612304,0 2.480468,-0.54571 0.868164,-0.5581 0.868164,-1.56269 0,-0.93018 -0.632519,-1.42627 -0.620117,-0.49609 -2.740918,-0.95498 l -0.79375,-0.18604 q -2.120801,-0.44648 -3.063379,-1.36425 -0.942578,-0.93018 -0.942578,-2.54248 0,-1.95958 1.389063,-3.02618 1.389062,-1.0666 3.943945,-1.0666 1.265039,0 2.38125,0.18604 1.116211,0.18603 2.058789,0.5581 z"
           inkscape:connector-curvature="0" />
        <path
           id="path1175"
           style="font-style:normal;font-variant:normal;font-weight:normal;font-stretch:normal;font-size:25.39999962px;font-family:'Gill Sans MT Condensed';-inkscape-font-specification:'Gill Sans MT Condensed, ';fill:#6f7c91;stroke:none;stroke-width:0.26458201;stroke-opacity:1"
           d="M -26.674132,212.19199 V 214.35 q -0.967383,-0.49609 -2.00918,-0.74414 -1.041796,-0.24805 -2.158007,-0.24805 -1.699121,0 -2.554883,0.5209 -0.84336,0.5209 -0.84336,1.5627 0,0.79375 0.607715,1.25263 0.607715,0.44649 2.443262,0.85576 l 0.781348,0.17364 q 2.430859,0.5209 3.447851,1.47588 1.029395,0.94257 1.029395,2.6417 0,1.93476 -1.537891,3.06337 -1.525488,1.12862 -4.204394,1.12862 -1.116211,0 -2.331641,-0.22324 -1.203027,-0.21084 -2.54248,-0.64493 v -2.35644 q 1.265039,0.65732 2.492871,0.99219 1.227832,0.32246 2.430859,0.32246 1.612305,0 2.480469,-0.54571 0.868164,-0.5581 0.868164,-1.56269 0,-0.93018 -0.63252,-1.42627 -0.620117,-0.49609 -2.740918,-0.95498 l -0.79375,-0.18604 q -2.1208,-0.44648 -3.063379,-1.36425 -0.942578,-0.93018 -0.942578,-2.54248 0,-1.95958 1.389063,-3.02618 1.389062,-1.0666 3.943945,-1.0666 1.265039,0 2.38125,0.18604 1.116211,0.18603 2.058789,0.5581 z"
           inkscape:connector-curvature="0" />
      </g>
      <g
         style="stroke-width:8.76243019"
         transform="matrix(0.03207636,0,0,0.02840939,-101.77331,200.60608)"
         id="g2317">
        <path
           style="fill:#4bb9ec;stroke-width:50.07249832"
           id="path2283"
           d="m 411.678,61.287 -150,-60 c -1.824,-0.736 -3.71,-1.029 -5.566,-1.029 v 149.96 c 1.86,0 3.75,-0.337 5.566,-1.069 l 150,-60 c 5.698,-2.285 9.434,-7.793 9.434,-13.931 0,-6.138 -3.736,-11.646 -9.434,-13.931 z"
           inkscape:connector-curvature="0" />
        <path
           style="fill:#725d57;stroke-width:50.07249832"
           id="path2285"
           d="m 271.111,15.218 v 181 c 0,8.399 -6.599,15 -15,15 -8.401,0 -15,-6.601 -15,-15 v -181 c 0,-8.401 6.599,-15 15,-15 8.401,0 15,6.599 15,15 z"
           inkscape:connector-curvature="0" />
        <path
           style="fill:#53433f;stroke-width:50.07249832"
           id="path2287"
           d="m 271.111,15.218 v 181 c 0,8.399 -6.599,15 -15,15 v -211 c 8.401,0 15,6.599 15,15 z"
           inkscape:connector-curvature="0" />
        <path
           style="fill:#ff641a;stroke-width:50.07249832"
           id="path2289"
           d="m 301.111,226.218 v 32.399 h -90 v -32.399 c 0,-24.901 20.099,-45 45,-45 24.901,0 45,20.099 45,45 z"
           inkscape:connector-curvature="0" />
        <path
           style="fill:#f03800;stroke-width:50.07249832"
           id="path2291"
           d="m 301.111,258.616 h -45 v -77.399 c 24.901,0 45,20.099 45,45 z"
           inkscape:connector-curvature="0" />
        <path
           style="fill:#ff9100;stroke-width:50.07249832"
           id="path2293"
           d="m 421.111,407.218 c 0,23.399 -5.099,46.5 -14.399,67.5 -8.101,2.699 -15.901,6.299 -23.101,11.1 -22.5,14.7 -51.301,14.7 -73.5,0 -16.5,-10.8 -35.099,-16.201 -54,-16.201 -17.999,0 -36.599,5.402 -52.5,16.201 -21.301,14.099 -52.5,13.799 -73.5,0 -7.8,-5.099 -16.199,-9 -24.901,-11.7 -9.3,-21 -14.099,-43.801 -14.099,-66.899 0,-90.901 74.099,-166 165,-166 90.901,0 165,75.098 165,165.999 z"
           inkscape:connector-curvature="0" />
        <path
           style="fill:#ff641a;stroke-width:50.07249832"
           id="path2295"
           d="m 421.111,407.218 c 0,23.399 -5.099,46.5 -14.399,67.5 -8.101,2.699 -15.901,6.299 -23.101,11.1 -22.5,14.7 -51.301,14.7 -73.5,0 -16.5,-10.8 -35.099,-16.201 -54,-16.201 V 241.218 c 90.901,0 165,75.099 165,166 z"
           inkscape:connector-curvature="0" />
        <path
           style="fill:#a8ebfa;stroke-width:50.07249832"
           id="path2297"
           d="m 510.912,496.617 c -3.001,7.5 -12.001,11.4 -19.501,8.101 -5.7,-2.401 -12.4,-5.4 -17.8,-9 -22.5,-14.702 -51,-14.702 -73.5,0 -16.199,10.8 -34.799,16.199 -53.399,16.199 -18.301,0 -36.901,-5.4 -53.101,-16.199 -11.4,-7.5 -24.3,-11.102 -37.5,-11.102 -12.299,0 -24.901,3.602 -36,11.102 -32.401,21.599 -74.099,21.599 -106.5,0 -22.5,-14.702 -52,-14.702 -74.5,0 -5.7,3.898 -11.999,7.2 -18.6,9.598 -7.8,3.301 -16.5,-0.599 -19.499,-8.399 -3.001,-7.8 0.899,-16.5 8.699,-19.501 4.499,-1.8 8.699,-3.9 12.9,-6.599 32.401,-21.601 75.099,-21.601 107.5,0 22.5,14.7 51,14.7 73.5,0 15.901,-10.8 34.501,-16.201 52.5,-16.201 18.9,0 37.5,5.402 54,16.201 22.5,14.7 51,14.7 73.5,0 32.401,-21.601 75.099,-21.601 107.5,0 3.9,2.401 7.8,4.499 11.7,6.299 7.801,3.001 11.4,11.701 8.101,19.501 z"
           inkscape:connector-curvature="0" />
        <path
           style="fill:#76e2f8;stroke-width:50.07249832"
           id="path2299"
           d="m 510.912,496.617 c -3.001,7.5 -12.001,11.4 -19.501,8.101 -5.7,-2.401 -12.4,-5.4 -17.8,-9 -22.5,-14.702 -51,-14.702 -73.5,0 -16.199,10.8 -34.799,16.199 -53.399,16.199 -18.301,0 -36.901,-5.4 -53.101,-16.199 -11.4,-7.5 -24.3,-11.102 -37.5,-11.102 v -30 c 18.9,0 37.5,5.402 54,16.201 22.5,14.7 51,14.7 73.5,0 32.401,-21.601 75.099,-21.601 107.5,0 3.9,2.401 7.8,4.499 11.7,6.299 7.801,3.001 11.4,11.701 8.101,19.501 z"
           inkscape:connector-curvature="0" />
      </g>
    </g>
    <text
       xml:space="preserve"
       id="text875"
       style="font-size:16.93333244px;line-height:1.25;font-family:sans-serif;white-space:pre;shape-inside:url(#rect877);stroke-width:0.26458332"
       x="-125.17641"
       y="194.76176" />
  </g>
</svg>
