<?xml version="1.0" encoding="UTF-8" standalone="no"?>
<!-- Created with Inkscape (http://www.inkscape.org/) -->

<svg
   xmlns:dc="http://purl.org/dc/elements/1.1/"
   xmlns:cc="http://creativecommons.org/ns#"
   xmlns:rdf="http://www.w3.org/1999/02/22-rdf-syntax-ns#"
   xmlns:svg="http://www.w3.org/2000/svg"
   xmlns="http://www.w3.org/2000/svg"
   xmlns:sodipodi="http://sodipodi.sourceforge.net/DTD/sodipodi-0.dtd"
   xmlns:inkscape="http://www.inkscape.org/namespaces/inkscape"
   width="255.33258mm"
   height="431.1889mm"
   viewBox="0 0 255.33258 431.18889"
   version="1.1"
   id="svg7418"
   sodipodi:docname="html_css.svg"
   inkscape:version="0.92.3 (2405546, 2018-03-11)">
  <defs
     id="defs7412" />
  <sodipodi:namedview
     id="base"
     pagecolor="#ffffff"
     bordercolor="#666666"
     borderopacity="1.0"
     inkscape:pageopacity="0.0"
     inkscape:pageshadow="2"
     inkscape:zoom="0.35"
     inkscape:cx="291.42855"
     inkscape:cy="937.10158"
     inkscape:document-units="mm"
     inkscape:current-layer="layer1"
     showgrid="false"
     inkscape:window-width="1853"
     inkscape:window-height="1025"
     inkscape:window-x="67"
     inkscape:window-y="27"
     inkscape:window-maximized="1" />
  <metadata
     id="metadata7415">
    <rdf:RDF>
      <cc:Work
         rdf:about="">
        <dc:format>image/svg+xml</dc:format>
        <dc:type
           rdf:resource="http://purl.org/dc/dcmitype/StillImage" />
      </cc:Work>
    </rdf:RDF>
  </metadata>
  <g
     inkscape:label="Calque 1"
     inkscape:groupmode="layer"
     id="layer1"
     transform="translate(5.2927e-7,-82.51381)">
    <polygon
       id="polygon2989"
       points="404.321,470.819 255.778,512 107.644,470.877 74.633,100.62 437.367,100.62 "
       style="fill:#000000"
       transform="matrix(0.42234681,0,0,0.42234681,70.612021,297.46116)" />
    <polygon
       id="polygon2991"
       points="256,480.523 376.03,447.246 404.27,130.894 256,130.894 "
       style="fill:#2b4966;fill-opacity:1"
       transform="matrix(0.42234681,0,0,0.42234681,70.612021,297.46116)" />
    <polygon
       id="polygon2993"
       points="256,268.217 150.31,268.217 154.38,313.627 256,313.627 "
       style="fill:#ebebeb"
       transform="matrix(0.42234681,0,0,0.42234681,70.612021,297.46116)" />
    <polygon
       id="polygon2995"
       points="255.843,176.305 142.132,176.305 146.26,221.716 256,221.716 256,176.305 "
       style="fill:#ebebeb"
       transform="matrix(0.42234681,0,0,0.42234681,70.612021,297.46116)" />
    <polygon
       id="polygon2997"
       points="255.791,433.457 256,433.399 256,386.153 255.801,386.206 205.227,372.55 201.994,336.333 177.419,336.333 156.409,336.333 162.771,407.634 "
       style="fill:#ebebeb"
       transform="matrix(0.42234681,0,0,0.42234681,70.612021,297.46116)" />
    <path
       id="path2999"
       d="m 138.18716,297.46116 h 23.22903 v 9.71395 h -13.51504 v 9.71398 h 13.51504 v 9.71403 h -23.22903 z"
       inkscape:connector-curvature="0"
       style="stroke-width:0.42234683" />
    <path
       id="path3001"
       d="m 166.06203,297.46116 h 23.22909 v 8.44694 H 175.776 v 1.68944 h 13.51512 v 19.42789 h -23.22909 v -8.86928 h 13.51506 v -1.68936 h -13.51506 z"
       inkscape:connector-curvature="0"
       style="stroke-width:0.42234683" />
    <path
       id="path3003"
       d="m 193.9369,297.46116 h 23.22908 v 8.44694 h -13.5151 v 1.68944 h 13.5151 v 19.42789 H 193.9369 v -8.86928 h 13.51514 v -1.68936 H 193.9369 Z"
       inkscape:connector-curvature="0"
       style="stroke-width:0.42234683" />
    <polygon
       id="polygon3005"
       points="319.831,221.716 315.699,268.217 255.843,268.217 255.843,313.627 311.761,313.627 306.49,372.521 255.843,386.191 255.843,433.435 348.937,407.634 349.62,399.962 360.291,280.411 361.399,268.217 369.597,176.305 255.843,176.305 255.843,221.716 "
       style="fill:#ffffff"
       transform="matrix(0.42234681,0,0,0.42234681,70.612021,297.46116)" />
    <polygon
       points="107.644,470.877 74.633,100.62 437.367,100.62 404.321,470.819 255.778,512 "
       id="polygon5052"
       style="fill:#000000"
       transform="matrix(0.42234681,0,0,0.42234681,-31.52101,82.51381)" />
    <polygon
       points="256,480.523 376.03,447.246 404.27,130.894 256,130.894 "
       id="polygon5054"
       style="fill:#890008;fill-opacity:1"
       transform="matrix(0.42234681,0,0,0.42234681,-31.52101,82.51381)" />
    <polygon
       points="256,268.217 195.91,268.217 191.76,221.716 256,221.716 256,176.305 255.843,176.305 142.132,176.305 143.219,188.488 154.38,313.627 256,313.627 "
       id="polygon5056"
       style="fill:#ebebeb"
       transform="matrix(0.42234681,0,0,0.42234681,-31.52101,82.51381)" />
    <polygon
       points="177.419,336.333 156.409,336.333 162.771,407.634 255.791,433.457 256,433.399 256,386.153 255.801,386.206 205.227,372.55 201.994,336.333 "
       id="polygon5058"
       style="fill:#ebebeb"
       transform="matrix(0.42234681,0,0,0.42234681,-31.52101,82.51381)" />
    <path
       d="m 14.253797,82.51381 h 9.746448 v 9.629482 h 8.91578 V 82.51381 h 9.746906 v 29.16047 h -9.746504 v -9.76463 h -8.91572 v 9.76463 H 14.254206 V 82.51381 Z"
       id="path5060"
       inkscape:connector-curvature="0"
       style="stroke-width:0.42234683" />
    <path
       d="M 55.479869,92.183824 H 46.899517 V 82.51381 h 26.911897 v 9.670014 H 65.227238 V 111.67428 H 55.480333 V 92.183824 Z"
       id="path5062"
       inkscape:connector-curvature="0"
       style="stroke-width:0.42234683" />
    <path
       d="m 78.082627,82.51381 h 10.162935 l 6.251583,10.246083 6.245215,-10.246083 h 10.16676 v 29.16047 h -9.70638 V 97.220735 L 94.497145,107.58894 H 94.329214 L 87.618987,97.220735 v 14.453545 h -9.536594 z"
       id="path5064"
       inkscape:connector-curvature="0"
       style="stroke-width:0.42234683" />
    <path
       d="m 115.75975,82.51381 h 9.74946 v 19.52167 h 13.70643 v 9.6388 h -23.45589 z"
       id="path5066"
       inkscape:connector-curvature="0"
       style="stroke-width:0.42234683" />
    <polygon
       points="349.62,399.962 360.291,280.411 361.399,268.217 349.162,268.217 255.843,268.217 255.843,313.627 311.761,313.627 306.49,372.521 255.843,386.191 255.843,433.435 348.937,407.634 "
       id="polygon5068"
       style="fill:#ffffff"
       transform="matrix(0.42234681,0,0,0.42234681,-31.52101,82.51381)" />
    <polygon
       points="255.843,221.716 365.385,221.716 365.531,221.716 366.442,211.509 368.511,188.488 369.597,176.305 255.843,176.305 255.843,204.509 255.843,221.605 "
       id="polygon5070"
       style="fill:#ffffff"
       transform="matrix(0.42234681,0,0,0.42234681,-31.52101,82.51381)" />
  </g>
</svg>
